<svg width="69" height="69" viewBox="0 0 69 69" fill="none" xmlns="http://www.w3.org/2000/svg">
<path d="M34.5 5.75C18.63 5.75 5.75 18.63 5.75 34.5C5.75 50.37 18.63 63.25 34.5 63.25C50.37 63.25 63.25 50.37 63.25 34.5C63.25 18.63 50.37 5.75 34.5 5.75ZM34.5 14.375C39.2725 14.375 43.125 18.2275 43.125 23C43.125 27.7725 39.2725 31.625 34.5 31.625C29.7275 31.625 25.875 27.7725 25.875 23C25.875 18.2275 29.7275 14.375 34.5 14.375ZM34.5 55.2C27.3125 55.2 20.9587 51.52 17.25 45.9425C17.3363 40.2212 28.75 37.0875 34.5 37.0875C40.2212 37.0875 51.6637 40.2212 51.75 45.9425C48.0412 51.52 41.6875 55.2 34.5 55.2Z" fill="#C4C4C4"/>
</svg>
