<svg width="219" height="215" viewBox="0 0 219 215" fill="none" xmlns="http://www.w3.org/2000/svg">
<g filter="url(#filter0_d_716_2424)">
<rect x="20" y="20" width="179" height="175" rx="20" fill="white"/>
<path d="M20 127C20 115.954 28.9543 107 40 107H179C190.046 107 199 115.954 199 127V174.5C199 185.546 190.046 194.5 179 194.5H40C28.9543 194.5 20 185.546 20 174.5V127Z" fill="#FFCA08"/>
<path d="M43.304 151.112C42.248 151.112 41.2773 150.867 40.392 150.376C39.5173 149.885 38.8187 149.203 38.296 148.328C37.784 147.443 37.528 146.451 37.528 145.352C37.528 144.253 37.784 143.267 38.296 142.392C38.8187 141.517 39.5173 140.835 40.392 140.344C41.2773 139.853 42.248 139.608 43.304 139.608C44.36 139.608 45.3253 139.853 46.2 140.344C47.0853 140.835 47.7787 141.517 48.28 142.392C48.792 143.267 49.048 144.253 49.048 145.352C49.048 146.451 48.792 147.443 48.28 148.328C47.768 149.203 47.0747 149.885 46.2 150.376C45.3253 150.867 44.36 151.112 43.304 151.112ZM43.304 148.616C44.2 148.616 44.9147 148.317 45.448 147.72C45.992 147.123 46.264 146.333 46.264 145.352C46.264 144.36 45.992 143.571 45.448 142.984C44.9147 142.387 44.2 142.088 43.304 142.088C42.3973 142.088 41.672 142.381 41.128 142.968C40.5947 143.555 40.328 144.349 40.328 145.352C40.328 146.344 40.5947 147.139 41.128 147.736C41.672 148.323 42.3973 148.616 43.304 148.616ZM56.1901 141.976C57.2355 141.976 58.0675 142.317 58.6861 143C59.3155 143.672 59.6301 144.6 59.6301 145.784V151H56.9101V146.152C56.9101 145.555 56.7555 145.091 56.4461 144.76C56.1368 144.429 55.7208 144.264 55.1981 144.264C54.6755 144.264 54.2595 144.429 53.9501 144.76C53.6408 145.091 53.4861 145.555 53.4861 146.152V151H50.7501V142.072H53.4861V143.256C53.7635 142.861 54.1368 142.552 54.6061 142.328C55.0755 142.093 55.6035 141.976 56.1901 141.976ZM74.402 142.072L68.802 155.24H65.858L67.906 150.696L64.274 142.072H67.33L69.394 147.656L71.442 142.072H74.402ZM79.6354 151.128C78.7607 151.128 77.9714 150.941 77.2674 150.568C76.574 150.195 76.0247 149.661 75.6194 148.968C75.2247 148.275 75.0274 147.464 75.0274 146.536C75.0274 145.619 75.23 144.813 75.6354 144.12C76.0407 143.416 76.5954 142.877 77.2994 142.504C78.0034 142.131 78.7927 141.944 79.6674 141.944C80.542 141.944 81.3314 142.131 82.0354 142.504C82.7394 142.877 83.294 143.416 83.6994 144.12C84.1047 144.813 84.3074 145.619 84.3074 146.536C84.3074 147.453 84.0994 148.264 83.6834 148.968C83.278 149.661 82.718 150.195 82.0034 150.568C81.2994 150.941 80.51 151.128 79.6354 151.128ZM79.6354 148.76C80.158 148.76 80.6007 148.568 80.9634 148.184C81.3367 147.8 81.5234 147.251 81.5234 146.536C81.5234 145.821 81.342 145.272 80.9794 144.888C80.6274 144.504 80.19 144.312 79.6674 144.312C79.134 144.312 78.6914 144.504 78.3394 144.888C77.9874 145.261 77.8114 145.811 77.8114 146.536C77.8114 147.251 77.982 147.8 78.3234 148.184C78.6754 148.568 79.1127 148.76 79.6354 148.76ZM94.7549 142.072V151H92.0189V149.784C91.7415 150.179 91.3629 150.499 90.8829 150.744C90.4135 150.979 89.8909 151.096 89.3149 151.096C88.6322 151.096 88.0295 150.947 87.5069 150.648C86.9842 150.339 86.5789 149.896 86.2909 149.32C86.0029 148.744 85.8589 148.067 85.8589 147.288V142.072H88.5789V146.92C88.5789 147.517 88.7335 147.981 89.0429 148.312C89.3522 148.643 89.7682 148.808 90.2909 148.808C90.8242 148.808 91.2455 148.643 91.5549 148.312C91.8642 147.981 92.0189 147.517 92.0189 146.92V142.072H94.7549ZM99.6361 143.56C99.9561 143.069 100.356 142.685 100.836 142.408C101.316 142.12 101.849 141.976 102.436 141.976V144.872H101.684C101.001 144.872 100.489 145.021 100.148 145.32C99.8068 145.608 99.6361 146.12 99.6361 146.856V151H96.9001V142.072H99.6361V143.56ZM111.975 144.344H110.503V151H107.767V144.344H106.775V142.072H107.767V141.816C107.767 140.717 108.081 139.885 108.711 139.32C109.34 138.744 110.263 138.456 111.479 138.456C111.681 138.456 111.831 138.461 111.927 138.472V140.792C111.404 140.76 111.036 140.835 110.823 141.016C110.609 141.197 110.503 141.523 110.503 141.992V142.072H111.975V144.344ZM114.816 141.144C114.336 141.144 113.941 141.005 113.632 140.728C113.333 140.44 113.184 140.088 113.184 139.672C113.184 139.245 113.333 138.893 113.632 138.616C113.941 138.328 114.336 138.184 114.816 138.184C115.285 138.184 115.669 138.328 115.968 138.616C116.277 138.893 116.432 139.245 116.432 139.672C116.432 140.088 116.277 140.44 115.968 140.728C115.669 141.005 115.285 141.144 114.816 141.144ZM116.176 142.072V151H113.44V142.072H116.176ZM121.075 143.56C121.395 143.069 121.795 142.685 122.275 142.408C122.755 142.12 123.288 141.976 123.875 141.976V144.872H123.123C122.44 144.872 121.928 145.021 121.587 145.32C121.246 145.608 121.075 146.12 121.075 146.856V151H118.339V142.072H121.075V143.56ZM128.995 151.128C128.216 151.128 127.523 150.995 126.915 150.728C126.307 150.461 125.827 150.099 125.475 149.64C125.123 149.171 124.925 148.648 124.883 148.072H127.587C127.619 148.381 127.763 148.632 128.019 148.824C128.275 149.016 128.589 149.112 128.963 149.112C129.304 149.112 129.565 149.048 129.747 148.92C129.939 148.781 130.035 148.605 130.035 148.392C130.035 148.136 129.901 147.949 129.635 147.832C129.368 147.704 128.936 147.565 128.339 147.416C127.699 147.267 127.165 147.112 126.739 146.952C126.312 146.781 125.944 146.52 125.635 146.168C125.325 145.805 125.171 145.32 125.171 144.712C125.171 144.2 125.309 143.736 125.587 143.32C125.875 142.893 126.291 142.557 126.835 142.312C127.389 142.067 128.045 141.944 128.803 141.944C129.923 141.944 130.803 142.221 131.443 142.776C132.093 143.331 132.467 144.067 132.563 144.984H130.035C129.992 144.675 129.853 144.429 129.619 144.248C129.395 144.067 129.096 143.976 128.723 143.976C128.403 143.976 128.157 144.04 127.987 144.168C127.816 144.285 127.731 144.451 127.731 144.664C127.731 144.92 127.864 145.112 128.131 145.24C128.408 145.368 128.835 145.496 129.411 145.624C130.072 145.795 130.611 145.965 131.027 146.136C131.443 146.296 131.805 146.563 132.115 146.936C132.435 147.299 132.6 147.789 132.611 148.408C132.611 148.931 132.461 149.4 132.163 149.816C131.875 150.221 131.453 150.541 130.899 150.776C130.355 151.011 129.72 151.128 128.995 151.128ZM139.441 148.68V151H138.049C137.057 151 136.283 150.76 135.729 150.28C135.174 149.789 134.897 148.995 134.897 147.896V144.344H133.809V142.072H134.897V139.896H137.633V142.072H139.425V144.344H137.633V147.928C137.633 148.195 137.697 148.387 137.825 148.504C137.953 148.621 138.166 148.68 138.465 148.68H139.441ZM48.536 163.768L44.552 175H41.128L37.144 163.768H40.056L42.84 172.248L45.64 163.768H48.536ZM58.2755 170.392C58.2755 170.648 58.2595 170.915 58.2275 171.192H52.0355C52.0782 171.747 52.2542 172.173 52.5635 172.472C52.8835 172.76 53.2728 172.904 53.7315 172.904C54.4142 172.904 54.8888 172.616 55.1555 172.04H58.0675C57.9182 172.627 57.6462 173.155 57.2515 173.624C56.8675 174.093 56.3822 174.461 55.7955 174.728C55.2088 174.995 54.5528 175.128 53.8275 175.128C52.9528 175.128 52.1742 174.941 51.4915 174.568C50.8088 174.195 50.2755 173.661 49.8915 172.968C49.5075 172.275 49.3155 171.464 49.3155 170.536C49.3155 169.608 49.5022 168.797 49.8755 168.104C50.2595 167.411 50.7928 166.877 51.4755 166.504C52.1582 166.131 52.9422 165.944 53.8275 165.944C54.6915 165.944 55.4595 166.125 56.1315 166.488C56.8035 166.851 57.3262 167.368 57.6995 168.04C58.0835 168.712 58.2755 169.496 58.2755 170.392ZM55.4755 169.672C55.4755 169.203 55.3155 168.829 54.9955 168.552C54.6755 168.275 54.2755 168.136 53.7955 168.136C53.3368 168.136 52.9475 168.269 52.6275 168.536C52.3182 168.803 52.1262 169.181 52.0515 169.672H55.4755ZM63.2909 165.944C63.9202 165.944 64.4695 166.072 64.9389 166.328C65.4189 166.584 65.7869 166.92 66.0429 167.336V166.072H68.7789V174.984C68.7789 175.805 68.6135 176.547 68.2829 177.208C67.9629 177.88 67.4669 178.413 66.7949 178.808C66.1335 179.203 65.3069 179.4 64.3149 179.4C62.9922 179.4 61.9202 179.085 61.0989 178.456C60.2775 177.837 59.8082 176.995 59.6909 175.928H62.3949C62.4802 176.269 62.6829 176.536 63.0029 176.728C63.3229 176.931 63.7175 177.032 64.1869 177.032C64.7522 177.032 65.2002 176.867 65.5309 176.536C65.8722 176.216 66.0429 175.699 66.0429 174.984V173.72C65.7762 174.136 65.4082 174.477 64.9389 174.744C64.4695 175 63.9202 175.128 63.2909 175.128C62.5549 175.128 61.8882 174.941 61.2909 174.568C60.6935 174.184 60.2189 173.645 59.8669 172.952C59.5255 172.248 59.3549 171.437 59.3549 170.52C59.3549 169.603 59.5255 168.797 59.8669 168.104C60.2189 167.411 60.6935 166.877 61.2909 166.504C61.8882 166.131 62.5549 165.944 63.2909 165.944ZM66.0429 170.536C66.0429 169.853 65.8509 169.315 65.4669 168.92C65.0935 168.525 64.6349 168.328 64.0909 168.328C63.5469 168.328 63.0829 168.525 62.6989 168.92C62.3255 169.304 62.1389 169.837 62.1389 170.52C62.1389 171.203 62.3255 171.747 62.6989 172.152C63.0829 172.547 63.5469 172.744 64.0909 172.744C64.6349 172.744 65.0935 172.547 65.4669 172.152C65.8509 171.757 66.0429 171.219 66.0429 170.536ZM79.3543 170.392C79.3543 170.648 79.3383 170.915 79.3063 171.192H73.1143C73.1569 171.747 73.3329 172.173 73.6423 172.472C73.9623 172.76 74.3516 172.904 74.8103 172.904C75.4929 172.904 75.9676 172.616 76.2343 172.04H79.1463C78.9969 172.627 78.7249 173.155 78.3303 173.624C77.9463 174.093 77.4609 174.461 76.8743 174.728C76.2876 174.995 75.6316 175.128 74.9063 175.128C74.0316 175.128 73.2529 174.941 72.5703 174.568C71.8876 174.195 71.3543 173.661 70.9703 172.968C70.5863 172.275 70.3943 171.464 70.3943 170.536C70.3943 169.608 70.5809 168.797 70.9543 168.104C71.3383 167.411 71.8716 166.877 72.5543 166.504C73.2369 166.131 74.0209 165.944 74.9063 165.944C75.7703 165.944 76.5383 166.125 77.2103 166.488C77.8823 166.851 78.4049 167.368 78.7783 168.04C79.1623 168.712 79.3543 169.496 79.3543 170.392ZM76.5543 169.672C76.5543 169.203 76.3943 168.829 76.0743 168.552C75.7543 168.275 75.3543 168.136 74.8743 168.136C74.4156 168.136 74.0263 168.269 73.7063 168.536C73.3969 168.803 73.2049 169.181 73.1303 169.672H76.5543ZM85.9536 172.68V175H84.5616C83.5696 175 82.7963 174.76 82.2416 174.28C81.687 173.789 81.4096 172.995 81.4096 171.896V168.344H80.3216V166.072H81.4096V163.896H84.1456V166.072H85.9376V168.344H84.1456V171.928C84.1456 172.195 84.2096 172.387 84.3376 172.504C84.4656 172.621 84.679 172.68 84.9776 172.68H85.9536ZM87.1136 170.52C87.1136 169.603 87.2843 168.797 87.6256 168.104C87.9776 167.411 88.4523 166.877 89.0496 166.504C89.647 166.131 90.3136 165.944 91.0496 165.944C91.679 165.944 92.2283 166.072 92.6976 166.328C93.1776 166.584 93.5456 166.92 93.8016 167.336V166.072H96.5376V175H93.8016V173.736C93.535 174.152 93.1616 174.488 92.6816 174.744C92.2123 175 91.663 175.128 91.0336 175.128C90.3083 175.128 89.647 174.941 89.0496 174.568C88.4523 174.184 87.9776 173.645 87.6256 172.952C87.2843 172.248 87.1136 171.437 87.1136 170.52ZM93.8016 170.536C93.8016 169.853 93.6096 169.315 93.2256 168.92C92.8523 168.525 92.3936 168.328 91.8496 168.328C91.3056 168.328 90.8416 168.525 90.4576 168.92C90.0843 169.304 89.8976 169.837 89.8976 170.52C89.8976 171.203 90.0843 171.747 90.4576 172.152C90.8416 172.547 91.3056 172.744 91.8496 172.744C92.3936 172.744 92.8523 172.547 93.2256 172.152C93.6096 171.757 93.8016 171.219 93.8016 170.536ZM101.433 167.336C101.689 166.92 102.057 166.584 102.537 166.328C103.017 166.072 103.566 165.944 104.185 165.944C104.921 165.944 105.588 166.131 106.185 166.504C106.782 166.877 107.252 167.411 107.593 168.104C107.945 168.797 108.121 169.603 108.121 170.52C108.121 171.437 107.945 172.248 107.593 172.952C107.252 173.645 106.782 174.184 106.185 174.568C105.588 174.941 104.921 175.128 104.185 175.128C103.556 175.128 103.006 175.005 102.537 174.76C102.068 174.504 101.7 174.168 101.433 173.752V175H98.697V163.16H101.433V167.336ZM105.337 170.52C105.337 169.837 105.145 169.304 104.761 168.92C104.388 168.525 103.924 168.328 103.369 168.328C102.825 168.328 102.361 168.525 101.977 168.92C101.604 169.315 101.417 169.853 101.417 170.536C101.417 171.219 101.604 171.757 101.977 172.152C102.361 172.547 102.825 172.744 103.369 172.744C103.913 172.744 104.377 172.547 104.761 172.152C105.145 171.747 105.337 171.203 105.337 170.52ZM112.472 163.16V175H109.736V163.16H112.472ZM123.051 170.392C123.051 170.648 123.035 170.915 123.003 171.192H116.811C116.854 171.747 117.03 172.173 117.339 172.472C117.659 172.76 118.048 172.904 118.507 172.904C119.19 172.904 119.664 172.616 119.931 172.04H122.843C122.694 172.627 122.422 173.155 122.027 173.624C121.643 174.093 121.158 174.461 120.571 174.728C119.984 174.995 119.328 175.128 118.603 175.128C117.728 175.128 116.95 174.941 116.267 174.568C115.584 174.195 115.051 173.661 114.667 172.968C114.283 172.275 114.091 171.464 114.091 170.536C114.091 169.608 114.278 168.797 114.651 168.104C115.035 167.411 115.568 166.877 116.251 166.504C116.934 166.131 117.718 165.944 118.603 165.944C119.467 165.944 120.235 166.125 120.907 166.488C121.579 166.851 122.102 167.368 122.475 168.04C122.859 168.712 123.051 169.496 123.051 170.392ZM120.251 169.672C120.251 169.203 120.091 168.829 119.771 168.552C119.451 168.275 119.051 168.136 118.571 168.136C118.112 168.136 117.723 168.269 117.403 168.536C117.094 168.803 116.902 169.181 116.827 169.672H120.251ZM127.781 169.368C127.781 168.259 128.021 167.272 128.501 166.408C128.981 165.533 129.648 164.856 130.501 164.376C131.365 163.885 132.341 163.64 133.429 163.64C134.762 163.64 135.904 163.992 136.853 164.696C137.802 165.4 138.437 166.36 138.757 167.576H135.749C135.525 167.107 135.205 166.749 134.789 166.504C134.384 166.259 133.92 166.136 133.397 166.136C132.554 166.136 131.872 166.429 131.349 167.016C130.826 167.603 130.565 168.387 130.565 169.368C130.565 170.349 130.826 171.133 131.349 171.72C131.872 172.307 132.554 172.6 133.397 172.6C133.92 172.6 134.384 172.477 134.789 172.232C135.205 171.987 135.525 171.629 135.749 171.16H138.757C138.437 172.376 137.802 173.336 136.853 174.04C135.904 174.733 134.762 175.08 133.429 175.08C132.341 175.08 131.365 174.84 130.501 174.36C129.648 173.869 128.981 173.192 128.501 172.328C128.021 171.464 127.781 170.477 127.781 169.368ZM140.069 170.52C140.069 169.603 140.239 168.797 140.581 168.104C140.933 167.411 141.407 166.877 142.005 166.504C142.602 166.131 143.269 165.944 144.005 165.944C144.634 165.944 145.183 166.072 145.653 166.328C146.133 166.584 146.501 166.92 146.757 167.336V166.072H149.493V175H146.757V173.736C146.49 174.152 146.117 174.488 145.637 174.744C145.167 175 144.618 175.128 143.989 175.128C143.263 175.128 142.602 174.941 142.005 174.568C141.407 174.184 140.933 173.645 140.581 172.952C140.239 172.248 140.069 171.437 140.069 170.52ZM146.757 170.536C146.757 169.853 146.565 169.315 146.181 168.92C145.807 168.525 145.349 168.328 144.805 168.328C144.261 168.328 143.797 168.525 143.413 168.92C143.039 169.304 142.853 169.837 142.853 170.52C142.853 171.203 143.039 171.747 143.413 172.152C143.797 172.547 144.261 172.744 144.805 172.744C145.349 172.744 145.807 172.547 146.181 172.152C146.565 171.757 146.757 171.219 146.757 170.536ZM154.388 167.56C154.708 167.069 155.108 166.685 155.588 166.408C156.068 166.12 156.601 165.976 157.188 165.976V168.872H156.436C155.753 168.872 155.241 169.021 154.9 169.32C154.559 169.608 154.388 170.12 154.388 170.856V175H151.652V166.072H154.388V167.56ZM163.652 172.68V175H162.26C161.268 175 160.494 174.76 159.94 174.28C159.385 173.789 159.108 172.995 159.108 171.896V168.344H158.02V166.072H159.108V163.896H161.844V166.072H163.636V168.344H161.844V171.928C161.844 172.195 161.908 172.387 162.036 172.504C162.164 172.621 162.377 172.68 162.676 172.68H163.652ZM166.636 175.128C166.156 175.128 165.761 174.989 165.452 174.712C165.153 174.424 165.004 174.072 165.004 173.656C165.004 173.229 165.153 172.872 165.452 172.584C165.761 172.296 166.156 172.152 166.636 172.152C167.105 172.152 167.489 172.296 167.788 172.584C168.097 172.872 168.252 173.229 168.252 173.656C168.252 174.072 168.097 174.424 167.788 174.712C167.489 174.989 167.105 175.128 166.636 175.128Z" fill="white"/>
<path d="M45.57 44.94V49.05H36.99V53.49H43.41V57.48H36.99V66H31.86V44.94H45.57ZM53.5763 52.05C54.1763 51.13 54.9263 50.41 55.8263 49.89C56.7263 49.35 57.7263 49.08 58.8263 49.08V54.51H57.4163C56.1363 54.51 55.1763 54.79 54.5363 55.35C53.8963 55.89 53.5763 56.85 53.5763 58.23V66H48.4463V49.26H53.5763V52.05ZM77.2383 57.36C77.2383 57.84 77.2083 58.34 77.1483 58.86H65.5383C65.6183 59.9 65.9483 60.7 66.5283 61.26C67.1283 61.8 67.8583 62.07 68.7183 62.07C69.9983 62.07 70.8883 61.53 71.3883 60.45H76.8483C76.5683 61.55 76.0583 62.54 75.3183 63.42C74.5983 64.3 73.6883 64.99 72.5883 65.49C71.4883 65.99 70.2583 66.24 68.8983 66.24C67.2583 66.24 65.7983 65.89 64.5183 65.19C63.2383 64.49 62.2383 63.49 61.5183 62.19C60.7983 60.89 60.4383 59.37 60.4383 57.63C60.4383 55.89 60.7883 54.37 61.4883 53.07C62.2083 51.77 63.2083 50.77 64.4883 50.07C65.7683 49.37 67.2383 49.02 68.8983 49.02C70.5183 49.02 71.9583 49.36 73.2183 50.04C74.4783 50.72 75.4583 51.69 76.1583 52.95C76.8783 54.21 77.2383 55.68 77.2383 57.36ZM71.9883 56.01C71.9883 55.13 71.6883 54.43 71.0883 53.91C70.4883 53.39 69.7383 53.13 68.8383 53.13C67.9783 53.13 67.2483 53.38 66.6483 53.88C66.0683 54.38 65.7083 55.09 65.5683 56.01H71.9883ZM95.9046 57.36C95.9046 57.84 95.8746 58.34 95.8146 58.86H84.2046C84.2846 59.9 84.6146 60.7 85.1946 61.26C85.7946 61.8 86.5246 62.07 87.3846 62.07C88.6646 62.07 89.5546 61.53 90.0546 60.45H95.5146C95.2346 61.55 94.7246 62.54 93.9846 63.42C93.2646 64.3 92.3546 64.99 91.2546 65.49C90.1546 65.99 88.9246 66.24 87.5646 66.24C85.9246 66.24 84.4646 65.89 83.1846 65.19C81.9046 64.49 80.9046 63.49 80.1846 62.19C79.4646 60.89 79.1046 59.37 79.1046 57.63C79.1046 55.89 79.4546 54.37 80.1546 53.07C80.8746 51.77 81.8746 50.77 83.1546 50.07C84.4346 49.37 85.9046 49.02 87.5646 49.02C89.1846 49.02 90.6246 49.36 91.8846 50.04C93.1446 50.72 94.1246 51.69 94.8246 52.95C95.5446 54.21 95.9046 55.68 95.9046 57.36ZM90.6546 56.01C90.6546 55.13 90.3546 54.43 89.7546 53.91C89.1546 53.39 88.4046 53.13 87.5046 53.13C86.6446 53.13 85.9146 53.38 85.3146 53.88C84.7346 54.38 84.3746 55.09 84.2346 56.01H90.6546ZM101.889 54.58V51.4H107.429V66H103.869V54.58H101.889ZM117.909 47L112.549 69.74H109.249L114.609 47H117.909ZM119.071 63.26C119.525 62.9 119.731 62.7333 119.691 62.76C120.998 61.68 122.025 60.7933 122.771 60.1C123.531 59.4067 124.171 58.68 124.691 57.92C125.211 57.16 125.471 56.42 125.471 55.7C125.471 55.1533 125.345 54.7267 125.091 54.42C124.838 54.1133 124.458 53.96 123.951 53.96C123.445 53.96 123.045 54.1533 122.751 54.54C122.471 54.9133 122.331 55.4467 122.331 56.14H119.031C119.058 55.0067 119.298 54.06 119.751 53.3C120.218 52.54 120.825 51.98 121.571 51.62C122.331 51.26 123.171 51.08 124.091 51.08C125.678 51.08 126.871 51.4867 127.671 52.3C128.485 53.1133 128.891 54.1733 128.891 55.48C128.891 56.9067 128.405 58.2333 127.431 59.46C126.458 60.6733 125.218 61.86 123.711 63.02H129.111V65.8H119.071V63.26ZM137.957 66L134.557 61.32V66H131.137V51.2H134.557V59.38L137.937 54.84H142.157L137.517 60.44L142.197 66H137.957ZM147.92 54.68C148.707 54.68 149.394 54.84 149.98 55.16C150.58 55.48 151.04 55.9 151.36 56.42V54.84H154.78V65.98C154.78 67.0067 154.574 67.9333 154.16 68.76C153.76 69.6 153.14 70.2667 152.3 70.76C151.474 71.2533 150.44 71.5 149.2 71.5C147.547 71.5 146.207 71.1067 145.18 70.32C144.154 69.5467 143.567 68.4933 143.42 67.16H146.8C146.907 67.5867 147.16 67.92 147.56 68.16C147.96 68.4133 148.454 68.54 149.04 68.54C149.747 68.54 150.307 68.3333 150.72 67.92C151.147 67.52 151.36 66.8733 151.36 65.98V64.4C151.027 64.92 150.567 65.3467 149.98 65.68C149.394 66 148.707 66.16 147.92 66.16C147 66.16 146.167 65.9267 145.42 65.46C144.674 64.98 144.08 64.3067 143.64 63.44C143.214 62.56 143 61.5467 143 60.4C143 59.2533 143.214 58.2467 143.64 57.38C144.08 56.5133 144.674 55.8467 145.42 55.38C146.167 54.9133 147 54.68 147.92 54.68ZM151.36 60.42C151.36 59.5667 151.12 58.8933 150.64 58.4C150.174 57.9067 149.6 57.66 148.92 57.66C148.24 57.66 147.66 57.9067 147.18 58.4C146.714 58.88 146.48 59.5467 146.48 60.4C146.48 61.2533 146.714 61.9333 147.18 62.44C147.66 62.9333 148.24 63.18 148.92 63.18C149.6 63.18 150.174 62.9333 150.64 62.44C151.12 61.9467 151.36 61.2733 151.36 60.42ZM37.88 90.14C36.56 90.14 35.3467 89.8333 34.24 89.22C33.1467 88.6067 32.2733 87.7533 31.62 86.66C30.98 85.5533 30.66 84.3133 30.66 82.94C30.66 81.5667 30.98 80.3333 31.62 79.24C32.2733 78.1467 33.1467 77.2933 34.24 76.68C35.3467 76.0667 36.56 75.76 37.88 75.76C39.2 75.76 40.4067 76.0667 41.5 76.68C42.6067 77.2933 43.4733 78.1467 44.1 79.24C44.74 80.3333 45.06 81.5667 45.06 82.94C45.06 84.3133 44.74 85.5533 44.1 86.66C43.46 87.7533 42.5933 88.6067 41.5 89.22C40.4067 89.8333 39.2 90.14 37.88 90.14ZM37.88 87.02C39 87.02 39.8933 86.6467 40.56 85.9C41.24 85.1533 41.58 84.1667 41.58 82.94C41.58 81.7 41.24 80.7133 40.56 79.98C39.8933 79.2333 39 78.86 37.88 78.86C36.7467 78.86 35.84 79.2267 35.16 79.96C34.4933 80.6933 34.16 81.6867 34.16 82.94C34.16 84.18 34.4933 85.1733 35.16 85.92C35.84 86.6533 36.7467 87.02 37.88 87.02ZM53.9427 78.72C55.2493 78.72 56.2893 79.1467 57.0627 80C57.8493 80.84 58.2427 82 58.2427 83.48V90H54.8427V83.94C54.8427 83.1933 54.6493 82.6133 54.2627 82.2C53.876 81.7867 53.356 81.58 52.7027 81.58C52.0493 81.58 51.5293 81.7867 51.1427 82.2C50.756 82.6133 50.5627 83.1933 50.5627 83.94V90H47.1427V78.84H50.5627V80.32C50.9093 79.8267 51.376 79.44 51.9627 79.16C52.5493 78.8667 53.2093 78.72 53.9427 78.72ZM62.5192 77.68C61.9192 77.68 61.4259 77.5067 61.0392 77.16C60.6659 76.8 60.4792 76.36 60.4792 75.84C60.4792 75.3067 60.6659 74.8667 61.0392 74.52C61.4259 74.16 61.9192 73.98 62.5192 73.98C63.1059 73.98 63.5859 74.16 63.9592 74.52C64.3459 74.8667 64.5392 75.3067 64.5392 75.84C64.5392 76.36 64.3459 76.8 63.9592 77.16C63.5859 77.5067 63.1059 77.68 62.5192 77.68ZM64.2192 78.84V90H60.7992V78.84H64.2192ZM71.9577 90.16C70.8643 90.16 69.8777 89.9267 68.9977 89.46C68.131 88.9933 67.4443 88.3267 66.9377 87.46C66.4443 86.5933 66.1977 85.58 66.1977 84.42C66.1977 83.2733 66.451 82.2667 66.9577 81.4C67.4643 80.52 68.1577 79.8467 69.0377 79.38C69.9177 78.9133 70.9043 78.68 71.9977 78.68C73.091 78.68 74.0777 78.9133 74.9577 79.38C75.8377 79.8467 76.531 80.52 77.0377 81.4C77.5443 82.2667 77.7977 83.2733 77.7977 84.42C77.7977 85.5667 77.5377 86.58 77.0177 87.46C76.511 88.3267 75.811 88.9933 74.9177 89.46C74.0377 89.9267 73.051 90.16 71.9577 90.16ZM71.9577 87.2C72.611 87.2 73.1643 86.96 73.6177 86.48C74.0843 86 74.3177 85.3133 74.3177 84.42C74.3177 83.5267 74.091 82.84 73.6377 82.36C73.1977 81.88 72.651 81.64 71.9977 81.64C71.331 81.64 70.7777 81.88 70.3377 82.36C69.8977 82.8267 69.6777 83.5133 69.6777 84.42C69.6777 85.3133 69.891 86 70.3177 86.48C70.7577 86.96 71.3043 87.2 71.9577 87.2ZM86.592 78.72C87.8987 78.72 88.9387 79.1467 89.712 80C90.4987 80.84 90.892 82 90.892 83.48V90H87.492V83.94C87.492 83.1933 87.2987 82.6133 86.912 82.2C86.5254 81.7867 86.0054 81.58 85.352 81.58C84.6987 81.58 84.1787 81.7867 83.792 82.2C83.4054 82.6133 83.212 83.1933 83.212 83.94V90H79.792V78.84H83.212V80.32C83.5587 79.8267 84.0254 79.44 84.612 79.16C85.1987 78.8667 85.8587 78.72 86.592 78.72Z" fill="#044E1E"/>
</g>
<defs>
<filter id="filter0_d_716_2424" x="0" y="0" width="219" height="216" filterUnits="userSpaceOnUse" color-interpolation-filters="sRGB">
<feFlood flood-opacity="0" result="BackgroundImageFix"/>
<feColorMatrix in="SourceAlpha" type="matrix" values="0 0 0 0 0 0 0 0 0 0 0 0 0 0 0 0 0 0 127 0" result="hardAlpha"/>
<feMorphology radius="10" operator="dilate" in="SourceAlpha" result="effect1_dropShadow_716_2424"/>
<feOffset/>
<feGaussianBlur stdDeviation="5"/>
<feComposite in2="hardAlpha" operator="out"/>
<feColorMatrix type="matrix" values="0 0 0 0 0 0 0 0 0 0 0 0 0 0 0 0 0 0 0.09 0"/>
<feBlend mode="normal" in2="BackgroundImageFix" result="effect1_dropShadow_716_2424"/>
<feBlend mode="normal" in="SourceGraphic" in2="effect1_dropShadow_716_2424" result="shape"/>
</filter>
</defs>
</svg>
