<svg width="195" height="192" viewBox="0 0 195 192" fill="none" xmlns="http://www.w3.org/2000/svg">
<g filter="url(#filter0_d_889_1828)">
<rect x="20" y="20.134" width="155" height="151.54" rx="20" fill="white"/>
<path d="M20 115.471C20 104.425 28.9543 95.4711 40 95.4711H155C166.046 95.4711 175 104.425 175 115.471V151.241C175 162.287 166.046 171.241 155 171.241H40C28.9543 171.241 20 162.287 20 151.241V115.471Z" fill="#25CF60"/>
<path d="M42.5153 134.002H38.3233L37.6513 135.986H34.7873L38.8513 124.754H42.0193L46.0833 135.986H43.1873L42.5153 134.002ZM41.8113 131.89L40.4193 127.778L39.0433 131.89H41.8113ZM52.9401 126.962C53.9855 126.962 54.8175 127.303 55.4361 127.986C56.0655 128.658 56.3801 129.586 56.3801 130.77V135.986H53.6601V131.138C53.6601 130.54 53.5055 130.076 53.1961 129.746C52.8868 129.415 52.4708 129.25 51.9481 129.25C51.4255 129.25 51.0095 129.415 50.7001 129.746C50.3908 130.076 50.2361 130.54 50.2361 131.138V135.986H47.5001V127.058H50.2361V128.242C50.5135 127.847 50.8868 127.538 51.3561 127.314C51.8255 127.079 52.3535 126.962 52.9401 126.962ZM57.9174 131.506C57.9174 130.588 58.088 129.783 58.4294 129.09C58.7814 128.396 59.256 127.863 59.8534 127.49C60.4507 127.116 61.1174 126.93 61.8534 126.93C62.44 126.93 62.9734 127.052 63.4534 127.298C63.944 127.543 64.328 127.874 64.6054 128.29V124.146H67.3414V135.986H64.6054V134.706C64.3494 135.132 63.9814 135.474 63.5014 135.73C63.032 135.986 62.4827 136.114 61.8534 136.114C61.1174 136.114 60.4507 135.927 59.8534 135.554C59.256 135.17 58.7814 134.631 58.4294 133.938C58.088 133.234 57.9174 132.423 57.9174 131.506ZM64.6054 131.522C64.6054 130.839 64.4134 130.3 64.0294 129.906C63.656 129.511 63.1974 129.314 62.6534 129.314C62.1094 129.314 61.6454 129.511 61.2614 129.906C60.888 130.29 60.7014 130.823 60.7014 131.506C60.7014 132.188 60.888 132.732 61.2614 133.138C61.6454 133.532 62.1094 133.73 62.6534 133.73C63.1974 133.73 63.656 133.532 64.0294 133.138C64.4134 132.743 64.6054 132.204 64.6054 131.522ZM76.4634 126.93C77.0927 126.93 77.642 127.058 78.1114 127.314C78.5914 127.57 78.9594 127.906 79.2154 128.322V127.058H81.9514V135.97C81.9514 136.791 81.786 137.532 81.4554 138.194C81.1354 138.866 80.6394 139.399 79.9674 139.794C79.306 140.188 78.4794 140.386 77.4874 140.386C76.1647 140.386 75.0927 140.071 74.2714 139.442C73.45 138.823 72.9807 137.98 72.8634 136.914H75.5674C75.6527 137.255 75.8554 137.522 76.1754 137.714C76.4954 137.916 76.89 138.018 77.3594 138.018C77.9247 138.018 78.3727 137.852 78.7034 137.522C79.0447 137.202 79.2154 136.684 79.2154 135.97V134.706C78.9487 135.122 78.5807 135.463 78.1114 135.73C77.642 135.986 77.0927 136.114 76.4634 136.114C75.7274 136.114 75.0607 135.927 74.4634 135.554C73.866 135.17 73.3914 134.631 73.0394 133.938C72.698 133.234 72.5274 132.423 72.5274 131.506C72.5274 130.588 72.698 129.783 73.0394 129.09C73.3914 128.396 73.866 127.863 74.4634 127.49C75.0607 127.116 75.7274 126.93 76.4634 126.93ZM79.2154 131.522C79.2154 130.839 79.0234 130.3 78.6394 129.906C78.266 129.511 77.8074 129.314 77.2634 129.314C76.7194 129.314 76.2554 129.511 75.8714 129.906C75.498 130.29 75.3114 130.823 75.3114 131.506C75.3114 132.188 75.498 132.732 75.8714 133.138C76.2554 133.532 76.7194 133.73 77.2634 133.73C77.8074 133.73 78.266 133.532 78.6394 133.138C79.0234 132.743 79.2154 132.204 79.2154 131.522ZM92.5268 131.378C92.5268 131.634 92.5108 131.9 92.4788 132.178H86.2868C86.3294 132.732 86.5054 133.159 86.8148 133.458C87.1348 133.746 87.5241 133.89 87.9828 133.89C88.6654 133.89 89.1401 133.602 89.4068 133.026H92.3188C92.1694 133.612 91.8974 134.14 91.5028 134.61C91.1188 135.079 90.6334 135.447 90.0468 135.714C89.4601 135.98 88.8041 136.114 88.0788 136.114C87.2041 136.114 86.4254 135.927 85.7428 135.554C85.0601 135.18 84.5268 134.647 84.1428 133.954C83.7588 133.26 83.5668 132.45 83.5668 131.522C83.5668 130.594 83.7534 129.783 84.1268 129.09C84.5108 128.396 85.0441 127.863 85.7268 127.49C86.4094 127.116 87.1934 126.93 88.0788 126.93C88.9428 126.93 89.7108 127.111 90.3828 127.474C91.0548 127.836 91.5774 128.354 91.9508 129.026C92.3348 129.698 92.5268 130.482 92.5268 131.378ZM89.7268 130.658C89.7268 130.188 89.5668 129.815 89.2468 129.538C88.9268 129.26 88.5268 129.122 88.0468 129.122C87.5881 129.122 87.1988 129.255 86.8788 129.522C86.5694 129.788 86.3774 130.167 86.3028 130.658H89.7268ZM99.1261 133.666V135.986H97.7341C96.7421 135.986 95.9688 135.746 95.4141 135.266C94.8595 134.775 94.5821 133.98 94.5821 132.882V129.33H93.4941V127.058H94.5821V124.882H97.3181V127.058H99.1101V129.33H97.3181V132.914C97.3181 133.18 97.3821 133.372 97.5101 133.49C97.6381 133.607 97.8515 133.666 98.1501 133.666H99.1261ZM103.841 126.85V124.306H108.273V135.986H105.425V126.85H103.841ZM116.692 120.786L112.404 138.978H109.764L114.052 120.786H116.692ZM117.658 133.794C118.021 133.506 118.186 133.372 118.154 133.394C119.2 132.53 120.021 131.82 120.618 131.266C121.226 130.711 121.738 130.13 122.154 129.522C122.57 128.914 122.778 128.322 122.778 127.746C122.778 127.308 122.677 126.967 122.474 126.722C122.272 126.476 121.968 126.354 121.562 126.354C121.157 126.354 120.837 126.508 120.602 126.818C120.378 127.116 120.266 127.543 120.266 128.098H117.626C117.648 127.191 117.84 126.434 118.202 125.826C118.576 125.218 119.061 124.77 119.658 124.482C120.266 124.194 120.938 124.05 121.674 124.05C122.944 124.05 123.898 124.375 124.538 125.026C125.189 125.676 125.514 126.524 125.514 127.57C125.514 128.711 125.125 129.772 124.346 130.754C123.568 131.724 122.576 132.674 121.37 133.602H125.69V135.826H117.658V133.794ZM136.374 135.986L133.654 132.242V135.986H130.918V124.146H133.654V130.69L136.358 127.058H139.734L136.022 131.538L139.766 135.986H136.374ZM144.38 126.93C145.01 126.93 145.559 127.058 146.028 127.314C146.508 127.57 146.876 127.906 147.132 128.322V127.058H149.868V135.97C149.868 136.791 149.703 137.532 149.372 138.194C149.052 138.866 148.556 139.399 147.884 139.794C147.223 140.188 146.396 140.386 145.404 140.386C144.082 140.386 143.01 140.071 142.188 139.442C141.367 138.823 140.898 137.98 140.78 136.914H143.484C143.57 137.255 143.772 137.522 144.092 137.714C144.412 137.916 144.807 138.018 145.276 138.018C145.842 138.018 146.29 137.852 146.62 137.522C146.962 137.202 147.132 136.684 147.132 135.97V134.706C146.866 135.122 146.498 135.463 146.028 135.73C145.559 135.986 145.01 136.114 144.38 136.114C143.644 136.114 142.978 135.927 142.38 135.554C141.783 135.17 141.308 134.631 140.956 133.938C140.615 133.234 140.444 132.423 140.444 131.506C140.444 130.588 140.615 129.783 140.956 129.09C141.308 128.396 141.783 127.863 142.38 127.49C142.978 127.116 143.644 126.93 144.38 126.93ZM147.132 131.522C147.132 130.839 146.94 130.3 146.556 129.906C146.183 129.511 145.724 129.314 145.18 129.314C144.636 129.314 144.172 129.511 143.788 129.906C143.415 130.29 143.228 130.823 143.228 131.506C143.228 132.188 143.415 132.732 143.788 133.138C144.172 133.532 144.636 133.73 145.18 133.73C145.724 133.73 146.183 133.532 146.556 133.138C146.94 132.743 147.132 132.204 147.132 131.522ZM44.0833 152.37C44.0833 153.02 43.9339 153.618 43.6353 154.162C43.3366 154.695 42.8779 155.127 42.2593 155.458C41.6406 155.788 40.8726 155.954 39.9553 155.954H38.2593V159.986H35.5233V148.754H39.9553C40.8513 148.754 41.6086 148.908 42.2273 149.218C42.8459 149.527 43.3099 149.954 43.6193 150.498C43.9286 151.042 44.0833 151.666 44.0833 152.37ZM39.7473 153.778C40.2699 153.778 40.6593 153.655 40.9153 153.41C41.1713 153.164 41.2993 152.818 41.2993 152.37C41.2993 151.922 41.1713 151.575 40.9153 151.33C40.6593 151.084 40.2699 150.962 39.7473 150.962H38.2593V153.778H39.7473ZM49.7516 160.114C48.877 160.114 48.0876 159.927 47.3836 159.554C46.6903 159.18 46.141 158.647 45.7356 157.954C45.341 157.26 45.1436 156.45 45.1436 155.522C45.1436 154.604 45.3463 153.799 45.7516 153.106C46.157 152.402 46.7116 151.863 47.4156 151.49C48.1196 151.116 48.909 150.93 49.7836 150.93C50.6583 150.93 51.4476 151.116 52.1516 151.49C52.8556 151.863 53.4103 152.402 53.8156 153.106C54.221 153.799 54.4236 154.604 54.4236 155.522C54.4236 156.439 54.2156 157.25 53.7996 157.954C53.3943 158.647 52.8343 159.18 52.1196 159.554C51.4156 159.927 50.6263 160.114 49.7516 160.114ZM49.7516 157.746C50.2743 157.746 50.717 157.554 51.0796 157.17C51.453 156.786 51.6396 156.236 51.6396 155.522C51.6396 154.807 51.4583 154.258 51.0956 153.874C50.7436 153.49 50.3063 153.298 49.7836 153.298C49.2503 153.298 48.8076 153.49 48.4556 153.874C48.1036 154.247 47.9276 154.796 47.9276 155.522C47.9276 156.236 48.0983 156.786 48.4396 157.17C48.7916 157.554 49.229 157.746 49.7516 157.746ZM61.0311 157.666V159.986H59.6391C58.6471 159.986 57.8738 159.746 57.3191 159.266C56.7645 158.775 56.4871 157.98 56.4871 156.882V153.33H55.3991V151.058H56.4871V148.882H59.2231V151.058H61.0151V153.33H59.2231V156.914C59.2231 157.18 59.2871 157.372 59.4151 157.49C59.5431 157.607 59.7565 157.666 60.0551 157.666H61.0311ZM62.1911 155.506C62.1911 154.588 62.3618 153.783 62.7031 153.09C63.0551 152.396 63.5298 151.863 64.1271 151.49C64.7245 151.116 65.3911 150.93 66.1271 150.93C66.7565 150.93 67.3058 151.058 67.7751 151.314C68.2551 151.57 68.6231 151.906 68.8791 152.322V151.058H71.6151V159.986H68.8791V158.722C68.6125 159.138 68.2391 159.474 67.7591 159.73C67.2898 159.986 66.7405 160.114 66.1111 160.114C65.3858 160.114 64.7245 159.927 64.1271 159.554C63.5298 159.17 63.0551 158.631 62.7031 157.938C62.3618 157.234 62.1911 156.423 62.1911 155.506ZM68.8791 155.522C68.8791 154.839 68.6871 154.3 68.3031 153.906C67.9298 153.511 67.4711 153.314 66.9271 153.314C66.3831 153.314 65.9191 153.511 65.5351 153.906C65.1618 154.29 64.9751 154.823 64.9751 155.506C64.9751 156.188 65.1618 156.732 65.5351 157.138C65.9191 157.532 66.3831 157.73 66.9271 157.73C67.4711 157.73 67.9298 157.532 68.3031 157.138C68.6871 156.743 68.8791 156.204 68.8791 155.522ZM78.7505 157.666V159.986H77.3585C76.3665 159.986 75.5932 159.746 75.0385 159.266C74.4838 158.775 74.2065 157.98 74.2065 156.882V153.33H73.1185V151.058H74.2065V148.882H76.9425V151.058H78.7345V153.33H76.9425V156.914C76.9425 157.18 77.0065 157.372 77.1345 157.49C77.2625 157.607 77.4758 157.666 77.7745 157.666H78.7505ZM84.5185 160.114C83.6438 160.114 82.8545 159.927 82.1505 159.554C81.4572 159.18 80.9078 158.647 80.5025 157.954C80.1078 157.26 79.9105 156.45 79.9105 155.522C79.9105 154.604 80.1132 153.799 80.5185 153.106C80.9238 152.402 81.4785 151.863 82.1825 151.49C82.8865 151.116 83.6758 150.93 84.5505 150.93C85.4252 150.93 86.2145 151.116 86.9185 151.49C87.6225 151.863 88.1772 152.402 88.5825 153.106C88.9878 153.799 89.1905 154.604 89.1905 155.522C89.1905 156.439 88.9825 157.25 88.5665 157.954C88.1612 158.647 87.6012 159.18 86.8865 159.554C86.1825 159.927 85.3932 160.114 84.5185 160.114ZM84.5185 157.746C85.0412 157.746 85.4838 157.554 85.8465 157.17C86.2198 156.786 86.4065 156.236 86.4065 155.522C86.4065 154.807 86.2252 154.258 85.8625 153.874C85.5105 153.49 85.0732 153.298 84.5505 153.298C84.0172 153.298 83.5745 153.49 83.2225 153.874C82.8705 154.247 82.6945 154.796 82.6945 155.522C82.6945 156.236 82.8652 156.786 83.2065 157.17C83.5585 157.554 83.9958 157.746 84.5185 157.746ZM102.443 153.33H100.971V159.986H98.2352V153.33H97.2432V151.058H98.2352V150.802C98.2352 149.703 98.5499 148.871 99.1792 148.306C99.8086 147.73 100.731 147.442 101.947 147.442C102.15 147.442 102.299 147.447 102.395 147.458V149.778C101.873 149.746 101.505 149.82 101.291 150.002C101.078 150.183 100.971 150.508 100.971 150.978V151.058H102.443V153.33ZM106.645 152.546C106.965 152.055 107.365 151.671 107.845 151.394C108.325 151.106 108.858 150.962 109.445 150.962V153.858H108.693C108.01 153.858 107.498 154.007 107.157 154.306C106.816 154.594 106.645 155.106 106.645 155.842V159.986H103.909V151.058H106.645V152.546ZM119.349 155.378C119.349 155.634 119.333 155.9 119.301 156.178H113.109C113.151 156.732 113.327 157.159 113.637 157.458C113.957 157.746 114.346 157.89 114.805 157.89C115.487 157.89 115.962 157.602 116.229 157.026H119.141C118.991 157.612 118.719 158.14 118.325 158.61C117.941 159.079 117.455 159.447 116.869 159.714C116.282 159.98 115.626 160.114 114.901 160.114C114.026 160.114 113.247 159.927 112.565 159.554C111.882 159.18 111.349 158.647 110.965 157.954C110.581 157.26 110.389 156.45 110.389 155.522C110.389 154.594 110.575 153.783 110.949 153.09C111.333 152.396 111.866 151.863 112.549 151.49C113.231 151.116 114.015 150.93 114.901 150.93C115.765 150.93 116.533 151.111 117.205 151.474C117.877 151.836 118.399 152.354 118.773 153.026C119.157 153.698 119.349 154.482 119.349 155.378ZM116.549 154.658C116.549 154.188 116.389 153.815 116.069 153.538C115.749 153.26 115.349 153.122 114.869 153.122C114.41 153.122 114.021 153.255 113.701 153.522C113.391 153.788 113.199 154.167 113.125 154.658H116.549ZM129.388 155.378C129.388 155.634 129.372 155.9 129.34 156.178H123.148C123.191 156.732 123.367 157.159 123.676 157.458C123.996 157.746 124.385 157.89 124.844 157.89C125.527 157.89 126.001 157.602 126.268 157.026H129.18C129.031 157.612 128.759 158.14 128.364 158.61C127.98 159.079 127.495 159.447 126.908 159.714C126.321 159.98 125.665 160.114 124.94 160.114C124.065 160.114 123.287 159.927 122.604 159.554C121.921 159.18 121.388 158.647 121.004 157.954C120.62 157.26 120.428 156.45 120.428 155.522C120.428 154.594 120.615 153.783 120.988 153.09C121.372 152.396 121.905 151.863 122.588 151.49C123.271 151.116 124.055 150.93 124.94 150.93C125.804 150.93 126.572 151.111 127.244 151.474C127.916 151.836 128.439 152.354 128.812 153.026C129.196 153.698 129.388 154.482 129.388 155.378ZM126.588 154.658C126.588 154.188 126.428 153.815 126.108 153.538C125.788 153.26 125.388 153.122 124.908 153.122C124.449 153.122 124.06 153.255 123.74 153.522C123.431 153.788 123.239 154.167 123.164 154.658H126.588ZM132.291 160.114C131.811 160.114 131.417 159.975 131.107 159.698C130.809 159.41 130.659 159.058 130.659 158.642C130.659 158.215 130.809 157.858 131.107 157.57C131.417 157.282 131.811 157.138 132.291 157.138C132.761 157.138 133.145 157.282 133.443 157.57C133.753 157.858 133.907 158.215 133.907 158.642C133.907 159.058 133.753 159.41 133.443 159.698C133.145 159.975 132.761 160.114 132.291 160.114Z" fill="white"/>
<path d="M43.3288 52.2507C44.5488 52.5107 45.5288 53.1207 46.2688 54.0807C47.0088 55.0207 47.3788 56.1007 47.3788 57.3207C47.3788 59.0807 46.7588 60.4807 45.5188 61.5207C44.2988 62.5407 42.5888 63.0507 40.3888 63.0507H30.5788V41.9907H40.0588C42.1988 41.9907 43.8688 42.4807 45.0688 43.4607C46.2888 44.4407 46.8988 45.7707 46.8988 47.4507C46.8988 48.6907 46.5688 49.7207 45.9088 50.5407C45.2688 51.3607 44.4088 51.9307 43.3288 52.2507ZM35.7088 50.5107H39.0688C39.9088 50.5107 40.5488 50.3307 40.9888 49.9707C41.4488 49.5907 41.6788 49.0407 41.6788 48.3207C41.6788 47.6007 41.4488 47.0507 40.9888 46.6707C40.5488 46.2907 39.9088 46.1007 39.0688 46.1007H35.7088V50.5107ZM39.4888 58.9107C40.3488 58.9107 41.0088 58.7207 41.4688 58.3407C41.9488 57.9407 42.1888 57.3707 42.1888 56.6307C42.1888 55.8907 41.9388 55.3107 41.4388 54.8907C40.9588 54.4707 40.2888 54.2607 39.4288 54.2607H35.7088V58.9107H39.4888ZM67.0641 46.3107V63.0507H61.9341V60.7707C61.4141 61.5107 60.7041 62.1107 59.8041 62.5707C58.9241 63.0107 57.9441 63.2307 56.8641 63.2307C55.5841 63.2307 54.4541 62.9507 53.4741 62.3907C52.4941 61.8107 51.7341 60.9807 51.1941 59.9007C50.6541 58.8207 50.3841 57.5507 50.3841 56.0907V46.3107H55.4841V55.4007C55.4841 56.5207 55.7741 57.3907 56.3541 58.0107C56.9341 58.6307 57.7141 58.9407 58.6941 58.9407C59.6941 58.9407 60.4841 58.6307 61.0641 58.0107C61.6441 57.3907 61.9341 56.5207 61.9341 55.4007V46.3107H67.0641ZM88.029 46.3107L77.529 71.0007H72.009L75.849 62.4807L69.039 46.3107H74.769L78.639 56.7807L82.479 46.3107H88.029ZM97.5806 51.6307V48.4507H103.121V63.0507H99.5606V51.6307H97.5806ZM112.8 63.0507L109.4 58.3707V63.0507H105.98V48.2507H109.4V56.4307L112.78 51.8907H117L112.36 57.4907L117.04 63.0507H112.8ZM122.763 51.7307C123.55 51.7307 124.237 51.8907 124.823 52.2107C125.423 52.5307 125.883 52.9507 126.203 53.4707V51.8907H129.623V63.0307C129.623 64.0574 129.417 64.9841 129.003 65.8107C128.603 66.6507 127.983 67.3174 127.143 67.8107C126.317 68.3041 125.283 68.5507 124.043 68.5507C122.39 68.5507 121.05 68.1574 120.023 67.3707C118.997 66.5974 118.41 65.5441 118.263 64.2107H121.643C121.75 64.6374 122.003 64.9707 122.403 65.2107C122.803 65.4641 123.297 65.5907 123.883 65.5907C124.59 65.5907 125.15 65.3841 125.563 64.9707C125.99 64.5707 126.203 63.9241 126.203 63.0307V61.4507C125.87 61.9707 125.41 62.3974 124.823 62.7307C124.237 63.0507 123.55 63.2107 122.763 63.2107C121.843 63.2107 121.01 62.9774 120.263 62.5107C119.517 62.0307 118.923 61.3574 118.483 60.4907C118.057 59.6107 117.843 58.5974 117.843 57.4507C117.843 56.3041 118.057 55.2974 118.483 54.4307C118.923 53.5641 119.517 52.8974 120.263 52.4307C121.01 51.9641 121.843 51.7307 122.763 51.7307ZM126.203 57.4707C126.203 56.6174 125.963 55.9441 125.483 55.4507C125.017 54.9574 124.443 54.7107 123.763 54.7107C123.083 54.7107 122.503 54.9574 122.023 55.4507C121.557 55.9307 121.323 56.5974 121.323 57.4507C121.323 58.3041 121.557 58.9841 122.023 59.4907C122.503 59.9841 123.083 60.2307 123.763 60.2307C124.443 60.2307 125.017 59.9841 125.483 59.4907C125.963 58.9974 126.203 58.3241 126.203 57.4707ZM40.6588 77.5307C40.6588 78.3441 40.4721 79.0907 40.0988 79.7707C39.7254 80.4374 39.1521 80.9774 38.3788 81.3907C37.6054 81.8041 36.6454 82.0107 35.4988 82.0107H33.3788V87.0507H29.9588V73.0107H35.4988C36.6188 73.0107 37.5654 73.2041 38.3388 73.5907C39.1121 73.9774 39.6921 74.5107 40.0788 75.1907C40.4654 75.8707 40.6588 76.6507 40.6588 77.5307ZM35.2388 79.2907C35.8921 79.2907 36.3788 79.1374 36.6988 78.8307C37.0188 78.5241 37.1788 78.0907 37.1788 77.5307C37.1788 76.9707 37.0188 76.5374 36.6988 76.2307C36.3788 75.9241 35.8921 75.7707 35.2388 75.7707H33.3788V79.2907H35.2388ZM47.6992 87.2107C46.6059 87.2107 45.6192 86.9774 44.7392 86.5107C43.8726 86.0441 43.1859 85.3774 42.6792 84.5107C42.1859 83.6441 41.9392 82.6307 41.9392 81.4707C41.9392 80.3241 42.1926 79.3174 42.6992 78.4507C43.2059 77.5707 43.8992 76.8974 44.7792 76.4307C45.6592 75.9641 46.6459 75.7307 47.7392 75.7307C48.8326 75.7307 49.8192 75.9641 50.6992 76.4307C51.5792 76.8974 52.2726 77.5707 52.7792 78.4507C53.2859 79.3174 53.5392 80.3241 53.5392 81.4707C53.5392 82.6174 53.2792 83.6307 52.7592 84.5107C52.2526 85.3774 51.5526 86.0441 50.6592 86.5107C49.7792 86.9774 48.7926 87.2107 47.6992 87.2107ZM47.6992 84.2507C48.3526 84.2507 48.9059 84.0107 49.3592 83.5307C49.8259 83.0507 50.0592 82.3641 50.0592 81.4707C50.0592 80.5774 49.8326 79.8907 49.3792 79.4107C48.9392 78.9307 48.3926 78.6907 47.7392 78.6907C47.0726 78.6907 46.5192 78.9307 46.0792 79.4107C45.6392 79.8774 45.4192 80.5641 45.4192 81.4707C45.4192 82.3641 45.6326 83.0507 46.0592 83.5307C46.4992 84.0107 47.0459 84.2507 47.6992 84.2507ZM61.7536 84.1507V87.0507H60.0136C58.7736 87.0507 57.8069 86.7507 57.1136 86.1507C56.4203 85.5374 56.0736 84.5441 56.0736 83.1707V78.7307H54.7136V75.8907H56.0736V73.1707H59.4936V75.8907H61.7336V78.7307H59.4936V83.2107C59.4936 83.5441 59.5736 83.7841 59.7336 83.9307C59.8936 84.0774 60.1603 84.1507 60.5336 84.1507H61.7536ZM63.1586 81.4507C63.1586 80.3041 63.3719 79.2974 63.7986 78.4307C64.2386 77.5641 64.8319 76.8974 65.5786 76.4307C66.3253 75.9641 67.1586 75.7307 68.0786 75.7307C68.8653 75.7307 69.5519 75.8907 70.1386 76.2107C70.7386 76.5307 71.1986 76.9507 71.5186 77.4707V75.8907H74.9386V87.0507H71.5186V85.4707C71.1853 85.9907 70.7186 86.4107 70.1186 86.7307C69.5319 87.0507 68.8453 87.2107 68.0586 87.2107C67.1519 87.2107 66.3253 86.9774 65.5786 86.5107C64.8319 86.0307 64.2386 85.3574 63.7986 84.4907C63.3719 83.6107 63.1586 82.5974 63.1586 81.4507ZM71.5186 81.4707C71.5186 80.6174 71.2786 79.9441 70.7986 79.4507C70.3319 78.9574 69.7586 78.7107 69.0786 78.7107C68.3986 78.7107 67.8186 78.9574 67.3386 79.4507C66.8719 79.9307 66.6386 80.5974 66.6386 81.4507C66.6386 82.3041 66.8719 82.9841 67.3386 83.4907C67.8186 83.9841 68.3986 84.2307 69.0786 84.2307C69.7586 84.2307 70.3319 83.9841 70.7986 83.4907C71.2786 82.9974 71.5186 82.3241 71.5186 81.4707ZM83.8128 84.1507V87.0507H82.0728C80.8328 87.0507 79.8661 86.7507 79.1728 86.1507C78.4795 85.5374 78.1328 84.5441 78.1328 83.1707V78.7307H76.7728V75.8907H78.1328V73.1707H81.5528V75.8907H83.7928V78.7307H81.5528V83.2107C81.5528 83.5441 81.6328 83.7841 81.7928 83.9307C81.9528 84.0774 82.2195 84.1507 82.5928 84.1507H83.8128ZM90.9778 87.2107C89.8845 87.2107 88.8978 86.9774 88.0178 86.5107C87.1511 86.0441 86.4645 85.3774 85.9578 84.5107C85.4645 83.6441 85.2178 82.6307 85.2178 81.4707C85.2178 80.3241 85.4711 79.3174 85.9778 78.4507C86.4845 77.5707 87.1778 76.8974 88.0578 76.4307C88.9378 75.9641 89.9245 75.7307 91.0178 75.7307C92.1111 75.7307 93.0978 75.9641 93.9778 76.4307C94.8578 76.8974 95.5511 77.5707 96.0578 78.4507C96.5645 79.3174 96.8178 80.3241 96.8178 81.4707C96.8178 82.6174 96.5578 83.6307 96.0378 84.5107C95.5311 85.3774 94.8311 86.0441 93.9378 86.5107C93.0578 86.9774 92.0711 87.2107 90.9778 87.2107ZM90.9778 84.2507C91.6311 84.2507 92.1845 84.0107 92.6378 83.5307C93.1045 83.0507 93.3378 82.3641 93.3378 81.4707C93.3378 80.5774 93.1111 79.8907 92.6578 79.4107C92.2178 78.9307 91.6711 78.6907 91.0178 78.6907C90.3511 78.6907 89.7978 78.9307 89.3578 79.4107C88.9178 79.8774 88.6978 80.5641 88.6978 81.4707C88.6978 82.3641 88.9111 83.0507 89.3378 83.5307C89.7778 84.0107 90.3245 84.2507 90.9778 84.2507Z" fill="#044E1E"/>
</g>
<defs>
<filter id="filter0_d_889_1828" x="0" y="0.134033" width="195" height="192.406" filterUnits="userSpaceOnUse" color-interpolation-filters="sRGB">
<feFlood flood-opacity="0" result="BackgroundImageFix"/>
<feColorMatrix in="SourceAlpha" type="matrix" values="0 0 0 0 0 0 0 0 0 0 0 0 0 0 0 0 0 0 127 0" result="hardAlpha"/>
<feMorphology radius="10" operator="dilate" in="SourceAlpha" result="effect1_dropShadow_889_1828"/>
<feOffset/>
<feGaussianBlur stdDeviation="5"/>
<feComposite in2="hardAlpha" operator="out"/>
<feColorMatrix type="matrix" values="0 0 0 0 0 0 0 0 0 0 0 0 0 0 0 0 0 0 0.09 0"/>
<feBlend mode="normal" in2="BackgroundImageFix" result="effect1_dropShadow_889_1828"/>
<feBlend mode="normal" in="SourceGraphic" in2="effect1_dropShadow_889_1828" result="shape"/>
</filter>
</defs>
</svg>
