<svg width="190" height="187" viewBox="0 0 190 187" fill="none" xmlns="http://www.w3.org/2000/svg">
<g filter="url(#filter0_d_379_2081)">
<rect x="20" y="20.162" width="150" height="146.648" rx="20" fill="white"/>
<path d="M20 113.067C20 102.021 28.9543 93.067 40 93.067H150C161.046 93.067 170 102.021 170 113.067V146.391C170 157.437 161.046 166.391 150 166.391H40C28.9543 166.391 20 157.437 20 146.391V113.067Z" fill="#FFCA08"/>
<path d="M40.5498 132.967C39.4938 132.967 38.5231 132.721 37.6378 132.231C36.7631 131.74 36.0645 131.057 35.5418 130.183C35.0298 129.297 34.7738 128.305 34.7738 127.207C34.7738 126.108 35.0298 125.121 35.5418 124.247C36.0645 123.372 36.7631 122.689 37.6378 122.199C38.5231 121.708 39.4938 121.463 40.5498 121.463C41.6058 121.463 42.5711 121.708 43.4458 122.199C44.3311 122.689 45.0245 123.372 45.5258 124.247C46.0378 125.121 46.2938 126.108 46.2938 127.207C46.2938 128.305 46.0378 129.297 45.5258 130.183C45.0138 131.057 44.3205 131.74 43.4458 132.231C42.5711 132.721 41.6058 132.967 40.5498 132.967ZM40.5498 130.471C41.4458 130.471 42.1605 130.172 42.6938 129.575C43.2378 128.977 43.5098 128.188 43.5098 127.207C43.5098 126.215 43.2378 125.425 42.6938 124.839C42.1605 124.241 41.4458 123.943 40.5498 123.943C39.6431 123.943 38.9178 124.236 38.3738 124.823C37.8405 125.409 37.5738 126.204 37.5738 127.207C37.5738 128.199 37.8405 128.993 38.3738 129.591C38.9178 130.177 39.6431 130.471 40.5498 130.471ZM53.4359 123.831C54.4813 123.831 55.3133 124.172 55.9319 124.855C56.5613 125.527 56.8759 126.455 56.8759 127.639V132.855H54.1559V128.007C54.1559 127.409 54.0013 126.945 53.6919 126.615C53.3826 126.284 52.9666 126.119 52.4439 126.119C51.9213 126.119 51.5053 126.284 51.1959 126.615C50.8866 126.945 50.7319 127.409 50.7319 128.007V132.855H47.9959V123.927H50.7319V125.111C51.0093 124.716 51.3826 124.407 51.8519 124.183C52.3213 123.948 52.8493 123.831 53.4359 123.831ZM71.6478 123.927L66.0478 137.095H63.1038L65.1518 132.551L61.5198 123.927H64.5758L66.6398 129.511L68.6878 123.927H71.6478ZM76.8812 132.983C76.0065 132.983 75.2172 132.796 74.5132 132.423C73.8198 132.049 73.2705 131.516 72.8652 130.823C72.4705 130.129 72.2732 129.319 72.2732 128.391C72.2732 127.473 72.4758 126.668 72.8812 125.975C73.2865 125.271 73.8412 124.732 74.5452 124.359C75.2492 123.985 76.0385 123.799 76.9132 123.799C77.7878 123.799 78.5772 123.985 79.2812 124.359C79.9852 124.732 80.5398 125.271 80.9452 125.975C81.3505 126.668 81.5532 127.473 81.5532 128.391C81.5532 129.308 81.3452 130.119 80.9292 130.823C80.5238 131.516 79.9638 132.049 79.2492 132.423C78.5452 132.796 77.7558 132.983 76.8812 132.983ZM76.8812 130.615C77.4038 130.615 77.8465 130.423 78.2092 130.039C78.5825 129.655 78.7692 129.105 78.7692 128.391C78.7692 127.676 78.5878 127.127 78.2252 126.743C77.8732 126.359 77.4358 126.167 76.9132 126.167C76.3798 126.167 75.9372 126.359 75.5852 126.743C75.2332 127.116 75.0572 127.665 75.0572 128.391C75.0572 129.105 75.2278 129.655 75.5692 130.039C75.9212 130.423 76.3585 130.615 76.8812 130.615ZM92.0007 123.927V132.855H89.2647V131.639C88.9873 132.033 88.6087 132.353 88.1287 132.599C87.6593 132.833 87.1367 132.951 86.5607 132.951C85.878 132.951 85.2753 132.801 84.7527 132.503C84.23 132.193 83.8247 131.751 83.5367 131.175C83.2487 130.599 83.1047 129.921 83.1047 129.143V123.927H85.8247V128.775C85.8247 129.372 85.9793 129.836 86.2887 130.167C86.598 130.497 87.014 130.663 87.5367 130.663C88.07 130.663 88.4913 130.497 88.8007 130.167C89.11 129.836 89.2647 129.372 89.2647 128.775V123.927H92.0007ZM96.8819 125.415C97.2019 124.924 97.6019 124.54 98.0819 124.263C98.5619 123.975 99.0953 123.831 99.6819 123.831V126.727H98.9299C98.2473 126.727 97.7353 126.876 97.3939 127.175C97.0526 127.463 96.8819 127.975 96.8819 128.711V132.855H94.1459V123.927H96.8819V125.415ZM109.22 126.199H107.748V132.855H105.012V126.199H104.02V123.927H105.012V123.671C105.012 122.572 105.327 121.74 105.956 121.175C106.586 120.599 107.508 120.311 108.724 120.311C108.927 120.311 109.076 120.316 109.172 120.327V122.647C108.65 122.615 108.282 122.689 108.068 122.871C107.855 123.052 107.748 123.377 107.748 123.847V123.927H109.22V126.199ZM112.062 122.999C111.582 122.999 111.187 122.86 110.878 122.583C110.579 122.295 110.43 121.943 110.43 121.527C110.43 121.1 110.579 120.748 110.878 120.471C111.187 120.183 111.582 120.039 112.062 120.039C112.531 120.039 112.915 120.183 113.214 120.471C113.523 120.748 113.678 121.1 113.678 121.527C113.678 121.943 113.523 122.295 113.214 122.583C112.915 122.86 112.531 122.999 112.062 122.999ZM113.422 123.927V132.855H110.686V123.927H113.422ZM118.321 125.415C118.641 124.924 119.041 124.54 119.521 124.263C120.001 123.975 120.534 123.831 121.121 123.831V126.727H120.369C119.686 126.727 119.174 126.876 118.833 127.175C118.491 127.463 118.321 127.975 118.321 128.711V132.855H115.585V123.927H118.321V125.415ZM126.24 132.983C125.462 132.983 124.768 132.849 124.16 132.583C123.552 132.316 123.072 131.953 122.72 131.495C122.368 131.025 122.171 130.503 122.128 129.927H124.832C124.864 130.236 125.008 130.487 125.264 130.679C125.52 130.871 125.835 130.967 126.208 130.967C126.55 130.967 126.811 130.903 126.992 130.775C127.184 130.636 127.28 130.46 127.28 130.247C127.28 129.991 127.147 129.804 126.88 129.687C126.614 129.559 126.182 129.42 125.584 129.271C124.944 129.121 124.411 128.967 123.984 128.807C123.558 128.636 123.19 128.375 122.88 128.023C122.571 127.66 122.416 127.175 122.416 126.567C122.416 126.055 122.555 125.591 122.832 125.175C123.12 124.748 123.536 124.412 124.08 124.167C124.635 123.921 125.291 123.799 126.048 123.799C127.168 123.799 128.048 124.076 128.688 124.631C129.339 125.185 129.712 125.921 129.808 126.839H127.28C127.238 126.529 127.099 126.284 126.864 126.103C126.64 125.921 126.342 125.831 125.968 125.831C125.648 125.831 125.403 125.895 125.232 126.023C125.062 126.14 124.976 126.305 124.976 126.519C124.976 126.775 125.11 126.967 125.376 127.095C125.654 127.223 126.08 127.351 126.656 127.479C127.318 127.649 127.856 127.82 128.272 127.991C128.688 128.151 129.051 128.417 129.36 128.791C129.68 129.153 129.846 129.644 129.856 130.263C129.856 130.785 129.707 131.255 129.408 131.671C129.12 132.076 128.699 132.396 128.144 132.631C127.6 132.865 126.966 132.983 126.24 132.983ZM136.686 130.535V132.855H135.294C134.302 132.855 133.529 132.615 132.974 132.135C132.42 131.644 132.142 130.849 132.142 129.751V126.199H131.054V123.927H132.142V121.751H134.878V123.927H136.67V126.199H134.878V129.783C134.878 130.049 134.942 130.241 135.07 130.359C135.198 130.476 135.412 130.535 135.71 130.535H136.686ZM45.7818 137.623L41.7978 148.855H38.3738L34.3898 137.623H37.3018L40.0858 146.103L42.8858 137.623H45.7818ZM55.5213 144.247C55.5213 144.503 55.5053 144.769 55.4733 145.047H49.2813C49.324 145.601 49.5 146.028 49.8093 146.327C50.1293 146.615 50.5186 146.759 50.9773 146.759C51.66 146.759 52.1346 146.471 52.4013 145.895H55.3133C55.164 146.481 54.892 147.009 54.4973 147.479C54.1133 147.948 53.628 148.316 53.0413 148.583C52.4546 148.849 51.7986 148.983 51.0733 148.983C50.1986 148.983 49.42 148.796 48.7373 148.423C48.0546 148.049 47.5213 147.516 47.1373 146.823C46.7533 146.129 46.5613 145.319 46.5613 144.391C46.5613 143.463 46.748 142.652 47.1213 141.959C47.5053 141.265 48.0386 140.732 48.7213 140.359C49.404 139.985 50.188 139.799 51.0733 139.799C51.9373 139.799 52.7053 139.98 53.3773 140.343C54.0493 140.705 54.572 141.223 54.9453 141.895C55.3293 142.567 55.5213 143.351 55.5213 144.247ZM52.7213 143.527C52.7213 143.057 52.5613 142.684 52.2413 142.407C51.9213 142.129 51.5213 141.991 51.0413 141.991C50.5826 141.991 50.1933 142.124 49.8733 142.391C49.564 142.657 49.372 143.036 49.2973 143.527H52.7213ZM60.5367 139.799C61.166 139.799 61.7153 139.927 62.1847 140.183C62.6647 140.439 63.0327 140.775 63.2887 141.191V139.927H66.0247V148.839C66.0247 149.66 65.8593 150.401 65.5287 151.063C65.2087 151.735 64.7127 152.268 64.0407 152.663C63.3793 153.057 62.5527 153.255 61.5607 153.255C60.238 153.255 59.166 152.94 58.3447 152.311C57.5233 151.692 57.054 150.849 56.9367 149.783H59.6407C59.726 150.124 59.9287 150.391 60.2487 150.583C60.5687 150.785 60.9633 150.887 61.4327 150.887C61.998 150.887 62.446 150.721 62.7767 150.391C63.118 150.071 63.2887 149.553 63.2887 148.839V147.575C63.022 147.991 62.654 148.332 62.1847 148.599C61.7153 148.855 61.166 148.983 60.5367 148.983C59.8007 148.983 59.134 148.796 58.5367 148.423C57.9393 148.039 57.4647 147.5 57.1127 146.807C56.7713 146.103 56.6007 145.292 56.6007 144.375C56.6007 143.457 56.7713 142.652 57.1127 141.959C57.4647 141.265 57.9393 140.732 58.5367 140.359C59.134 139.985 59.8007 139.799 60.5367 139.799ZM63.2887 144.391C63.2887 143.708 63.0967 143.169 62.7127 142.775C62.3393 142.38 61.8807 142.183 61.3367 142.183C60.7927 142.183 60.3287 142.38 59.9447 142.775C59.5713 143.159 59.3847 143.692 59.3847 144.375C59.3847 145.057 59.5713 145.601 59.9447 146.007C60.3287 146.401 60.7927 146.599 61.3367 146.599C61.8807 146.599 62.3393 146.401 62.7127 146.007C63.0967 145.612 63.2887 145.073 63.2887 144.391ZM76.6001 144.247C76.6001 144.503 76.5841 144.769 76.5521 145.047H70.3601C70.4027 145.601 70.5787 146.028 70.8881 146.327C71.2081 146.615 71.5974 146.759 72.0561 146.759C72.7387 146.759 73.2134 146.471 73.4801 145.895H76.3921C76.2427 146.481 75.9707 147.009 75.5761 147.479C75.1921 147.948 74.7067 148.316 74.1201 148.583C73.5334 148.849 72.8774 148.983 72.1521 148.983C71.2774 148.983 70.4987 148.796 69.8161 148.423C69.1334 148.049 68.6001 147.516 68.2161 146.823C67.8321 146.129 67.6401 145.319 67.6401 144.391C67.6401 143.463 67.8267 142.652 68.2001 141.959C68.5841 141.265 69.1174 140.732 69.8001 140.359C70.4827 139.985 71.2667 139.799 72.1521 139.799C73.0161 139.799 73.7841 139.98 74.4561 140.343C75.1281 140.705 75.6507 141.223 76.0241 141.895C76.4081 142.567 76.6001 143.351 76.6001 144.247ZM73.8001 143.527C73.8001 143.057 73.6401 142.684 73.3201 142.407C73.0001 142.129 72.6001 141.991 72.1201 141.991C71.6614 141.991 71.2721 142.124 70.9521 142.391C70.6427 142.657 70.4507 143.036 70.3761 143.527H73.8001ZM83.1994 146.535V148.855H81.8074C80.8154 148.855 80.0421 148.615 79.4874 148.135C78.9328 147.644 78.6554 146.849 78.6554 145.751V142.199H77.5674V139.927H78.6554V137.751H81.3914V139.927H83.1834V142.199H81.3914V145.783C81.3914 146.049 81.4554 146.241 81.5834 146.359C81.7114 146.476 81.9248 146.535 82.2234 146.535H83.1994ZM84.3594 144.375C84.3594 143.457 84.5301 142.652 84.8714 141.959C85.2234 141.265 85.6981 140.732 86.2954 140.359C86.8928 139.985 87.5594 139.799 88.2954 139.799C88.9248 139.799 89.4741 139.927 89.9434 140.183C90.4234 140.439 90.7914 140.775 91.0474 141.191V139.927H93.7834V148.855H91.0474V147.591C90.7808 148.007 90.4074 148.343 89.9274 148.599C89.4581 148.855 88.9088 148.983 88.2794 148.983C87.5541 148.983 86.8928 148.796 86.2954 148.423C85.6981 148.039 85.2234 147.5 84.8714 146.807C84.5301 146.103 84.3594 145.292 84.3594 144.375ZM91.0474 144.391C91.0474 143.708 90.8554 143.169 90.4714 142.775C90.0981 142.38 89.6394 142.183 89.0954 142.183C88.5514 142.183 88.0874 142.38 87.7034 142.775C87.3301 143.159 87.1434 143.692 87.1434 144.375C87.1434 145.057 87.3301 145.601 87.7034 146.007C88.0874 146.401 88.5514 146.599 89.0954 146.599C89.6394 146.599 90.0981 146.401 90.4714 146.007C90.8554 145.612 91.0474 145.073 91.0474 144.391ZM98.6788 141.191C98.9348 140.775 99.3028 140.439 99.7828 140.183C100.263 139.927 100.812 139.799 101.431 139.799C102.167 139.799 102.833 139.985 103.431 140.359C104.028 140.732 104.497 141.265 104.839 141.959C105.191 142.652 105.367 143.457 105.367 144.375C105.367 145.292 105.191 146.103 104.839 146.807C104.497 147.5 104.028 148.039 103.431 148.423C102.833 148.796 102.167 148.983 101.431 148.983C100.801 148.983 100.252 148.86 99.7828 148.615C99.3135 148.359 98.9455 148.023 98.6788 147.607V148.855H95.9428V137.015H98.6788V141.191ZM102.583 144.375C102.583 143.692 102.391 143.159 102.007 142.775C101.633 142.38 101.169 142.183 100.615 142.183C100.071 142.183 99.6068 142.38 99.2228 142.775C98.8495 143.169 98.6628 143.708 98.6628 144.391C98.6628 145.073 98.8495 145.612 99.2228 146.007C99.6068 146.401 100.071 146.599 100.615 146.599C101.159 146.599 101.623 146.401 102.007 146.007C102.391 145.601 102.583 145.057 102.583 144.375ZM109.718 137.015V148.855H106.982V137.015H109.718ZM120.297 144.247C120.297 144.503 120.281 144.769 120.249 145.047H114.057C114.1 145.601 114.276 146.028 114.585 146.327C114.905 146.615 115.294 146.759 115.753 146.759C116.436 146.759 116.91 146.471 117.177 145.895H120.089C119.94 146.481 119.668 147.009 119.273 147.479C118.889 147.948 118.404 148.316 117.817 148.583C117.23 148.849 116.574 148.983 115.849 148.983C114.974 148.983 114.196 148.796 113.513 148.423C112.83 148.049 112.297 147.516 111.913 146.823C111.529 146.129 111.337 145.319 111.337 144.391C111.337 143.463 111.524 142.652 111.897 141.959C112.281 141.265 112.814 140.732 113.497 140.359C114.18 139.985 114.964 139.799 115.849 139.799C116.713 139.799 117.481 139.98 118.153 140.343C118.825 140.705 119.348 141.223 119.721 141.895C120.105 142.567 120.297 143.351 120.297 144.247ZM117.497 143.527C117.497 143.057 117.337 142.684 117.017 142.407C116.697 142.129 116.297 141.991 115.817 141.991C115.358 141.991 114.969 142.124 114.649 142.391C114.34 142.657 114.148 143.036 114.073 143.527H117.497ZM125.027 143.223C125.027 142.113 125.267 141.127 125.747 140.263C126.227 139.388 126.894 138.711 127.747 138.231C128.611 137.74 129.587 137.495 130.675 137.495C132.008 137.495 133.15 137.847 134.099 138.551C135.048 139.255 135.683 140.215 136.003 141.431H132.995C132.771 140.961 132.451 140.604 132.035 140.359C131.63 140.113 131.166 139.991 130.643 139.991C129.8 139.991 129.118 140.284 128.595 140.871C128.072 141.457 127.811 142.241 127.811 143.223C127.811 144.204 128.072 144.988 128.595 145.575C129.118 146.161 129.8 146.455 130.643 146.455C131.166 146.455 131.63 146.332 132.035 146.087C132.451 145.841 132.771 145.484 132.995 145.015H136.003C135.683 146.231 135.048 147.191 134.099 147.895C133.15 148.588 132.008 148.935 130.675 148.935C129.587 148.935 128.611 148.695 127.747 148.215C126.894 147.724 126.227 147.047 125.747 146.183C125.267 145.319 125.027 144.332 125.027 143.223ZM137.314 144.375C137.314 143.457 137.485 142.652 137.826 141.959C138.178 141.265 138.653 140.732 139.25 140.359C139.848 139.985 140.514 139.799 141.25 139.799C141.88 139.799 142.429 139.927 142.898 140.183C143.378 140.439 143.746 140.775 144.002 141.191V139.927H146.738V148.855H144.002V147.591C143.736 148.007 143.362 148.343 142.882 148.599C142.413 148.855 141.864 148.983 141.234 148.983C140.509 148.983 139.848 148.796 139.25 148.423C138.653 148.039 138.178 147.5 137.826 146.807C137.485 146.103 137.314 145.292 137.314 144.375ZM144.002 144.391C144.002 143.708 143.81 143.169 143.426 142.775C143.053 142.38 142.594 142.183 142.05 142.183C141.506 142.183 141.042 142.38 140.658 142.775C140.285 143.159 140.098 143.692 140.098 144.375C140.098 145.057 140.285 145.601 140.658 146.007C141.042 146.401 141.506 146.599 142.05 146.599C142.594 146.599 143.053 146.401 143.426 146.007C143.81 145.612 144.002 145.073 144.002 144.391ZM151.634 141.415C151.954 140.924 152.354 140.54 152.834 140.263C153.314 139.975 153.847 139.831 154.434 139.831V142.727H153.682C152.999 142.727 152.487 142.876 152.146 143.175C151.804 143.463 151.634 143.975 151.634 144.711V148.855H148.898V139.927H151.634V141.415ZM160.898 146.535V148.855H159.506C158.514 148.855 157.74 148.615 157.186 148.135C156.631 147.644 156.354 146.849 156.354 145.751V142.199H155.266V139.927H156.354V137.751H159.09V139.927H160.882V142.199H159.09V145.783C159.09 146.049 159.154 146.241 159.282 146.359C159.41 146.476 159.623 146.535 159.922 146.535H160.898ZM163.882 148.983C163.402 148.983 163.007 148.844 162.698 148.567C162.399 148.279 162.25 147.927 162.25 147.511C162.25 147.084 162.399 146.727 162.698 146.439C163.007 146.151 163.402 146.007 163.882 146.007C164.351 146.007 164.735 146.151 165.034 146.439C165.343 146.727 165.498 147.084 165.498 147.511C165.498 147.927 165.343 148.279 165.034 148.567C164.735 148.844 164.351 148.983 163.882 148.983Z" fill="white"/>
<path d="M43.9499 39.3757V43.4857H35.3699V47.9257H41.7899V51.9157H35.3699V60.4357H30.2399V39.3757H43.9499ZM51.9561 46.4857C52.5561 45.5657 53.3061 44.8457 54.2061 44.3257C55.1061 43.7857 56.1061 43.5157 57.2061 43.5157V48.9457H55.7961C54.5161 48.9457 53.5561 49.2257 52.9161 49.7857C52.2761 50.3257 51.9561 51.2857 51.9561 52.6657V60.4357H46.8261V43.6957H51.9561V46.4857ZM75.6182 51.7957C75.6182 52.2757 75.5882 52.7757 75.5282 53.2957H63.9182C63.9982 54.3357 64.3282 55.1357 64.9082 55.6957C65.5082 56.2357 66.2382 56.5057 67.0982 56.5057C68.3782 56.5057 69.2682 55.9657 69.7682 54.8857H75.2282C74.9482 55.9857 74.4382 56.9757 73.6982 57.8557C72.9782 58.7357 72.0682 59.4257 70.9682 59.9257C69.8682 60.4257 68.6382 60.6757 67.2782 60.6757C65.6382 60.6757 64.1782 60.3257 62.8982 59.6257C61.6182 58.9257 60.6182 57.9257 59.8982 56.6257C59.1782 55.3257 58.8182 53.8057 58.8182 52.0657C58.8182 50.3257 59.1682 48.8057 59.8682 47.5057C60.5882 46.2057 61.5882 45.2057 62.8682 44.5057C64.1482 43.8057 65.6182 43.4557 67.2782 43.4557C68.8982 43.4557 70.3382 43.7957 71.5982 44.4757C72.8582 45.1557 73.8382 46.1257 74.5382 47.3857C75.2582 48.6457 75.6182 50.1157 75.6182 51.7957ZM70.3682 50.4457C70.3682 49.5657 70.0682 48.8657 69.4682 48.3457C68.8682 47.8257 68.1182 47.5657 67.2182 47.5657C66.3582 47.5657 65.6282 47.8157 65.0282 48.3157C64.4482 48.8157 64.0882 49.5257 63.9482 50.4457H70.3682ZM94.2845 51.7957C94.2845 52.2757 94.2545 52.7757 94.1945 53.2957H82.5845C82.6645 54.3357 82.9945 55.1357 83.5745 55.6957C84.1745 56.2357 84.9045 56.5057 85.7645 56.5057C87.0445 56.5057 87.9345 55.9657 88.4345 54.8857H93.8945C93.6145 55.9857 93.1045 56.9757 92.3645 57.8557C91.6445 58.7357 90.7345 59.4257 89.6345 59.9257C88.5345 60.4257 87.3045 60.6757 85.9445 60.6757C84.3045 60.6757 82.8445 60.3257 81.5645 59.6257C80.2845 58.9257 79.2845 57.9257 78.5645 56.6257C77.8445 55.3257 77.4845 53.8057 77.4845 52.0657C77.4845 50.3257 77.8345 48.8057 78.5345 47.5057C79.2545 46.2057 80.2545 45.2057 81.5345 44.5057C82.8145 43.8057 84.2845 43.4557 85.9445 43.4557C87.5645 43.4557 89.0045 43.7957 90.2645 44.4757C91.5245 45.1557 92.5045 46.1257 93.2045 47.3857C93.9245 48.6457 94.2845 50.1157 94.2845 51.7957ZM89.0345 50.4457C89.0345 49.5657 88.7345 48.8657 88.1345 48.3457C87.5345 47.8257 86.7845 47.5657 85.8845 47.5657C85.0245 47.5657 84.2945 47.8157 83.6945 48.3157C83.1145 48.8157 82.7545 49.5257 82.6145 50.4457H89.0345ZM100.269 49.0157V45.8357H105.809V60.4357H102.249V49.0157H100.269ZM116.289 41.4357L110.929 64.1757H107.629L112.989 41.4357H116.289ZM117.451 57.6957C117.904 57.3357 118.111 57.1691 118.071 57.1957C119.378 56.1157 120.404 55.2291 121.151 54.5357C121.911 53.8424 122.551 53.1157 123.071 52.3557C123.591 51.5957 123.851 50.8557 123.851 50.1357C123.851 49.5891 123.724 49.1624 123.471 48.8557C123.218 48.5491 122.838 48.3957 122.331 48.3957C121.824 48.3957 121.424 48.5891 121.131 48.9757C120.851 49.3491 120.711 49.8824 120.711 50.5757H117.411C117.438 49.4424 117.678 48.4957 118.131 47.7357C118.598 46.9757 119.204 46.4157 119.951 46.0557C120.711 45.6957 121.551 45.5157 122.471 45.5157C124.058 45.5157 125.251 45.9224 126.051 46.7357C126.864 47.5491 127.271 48.6091 127.271 49.9157C127.271 51.3424 126.784 52.6691 125.811 53.8957C124.838 55.1091 123.598 56.2957 122.091 57.4557H127.491V60.2357H117.451V57.6957ZM136.337 60.4357L132.937 55.7557V60.4357H129.517V45.6357H132.937V53.8157L136.317 49.2757H140.537L135.897 54.8757L140.577 60.4357H136.337ZM146.3 49.1157C147.087 49.1157 147.774 49.2757 148.36 49.5957C148.96 49.9157 149.42 50.3357 149.74 50.8557V49.2757H153.16V60.4157C153.16 61.4424 152.954 62.3691 152.54 63.1957C152.14 64.0357 151.52 64.7024 150.68 65.1957C149.854 65.6891 148.82 65.9357 147.58 65.9357C145.927 65.9357 144.587 65.5424 143.56 64.7557C142.534 63.9824 141.947 62.9291 141.8 61.5957H145.18C145.287 62.0224 145.54 62.3557 145.94 62.5957C146.34 62.8491 146.834 62.9757 147.42 62.9757C148.127 62.9757 148.687 62.7691 149.1 62.3557C149.527 61.9557 149.74 61.3091 149.74 60.4157V58.8357C149.407 59.3557 148.947 59.7824 148.36 60.1157C147.774 60.4357 147.087 60.5957 146.3 60.5957C145.38 60.5957 144.547 60.3624 143.8 59.8957C143.054 59.4157 142.46 58.7424 142.02 57.8757C141.594 56.9957 141.38 55.9824 141.38 54.8357C141.38 53.6891 141.594 52.6824 142.02 51.8157C142.46 50.9491 143.054 50.2824 143.8 49.8157C144.547 49.3491 145.38 49.1157 146.3 49.1157ZM149.74 54.8557C149.74 54.0024 149.5 53.3291 149.02 52.8357C148.554 52.3424 147.98 52.0957 147.3 52.0957C146.62 52.0957 146.04 52.3424 145.56 52.8357C145.094 53.3157 144.86 53.9824 144.86 54.8357C144.86 55.6891 145.094 56.3691 145.56 56.8757C146.04 57.3691 146.62 57.6157 147.3 57.6157C147.98 57.6157 148.554 57.3691 149.02 56.8757C149.5 56.3824 149.74 55.7091 149.74 54.8557ZM39.7199 66.3957V69.1357H35.9999V80.4357H32.5799V69.1357H28.8599V66.3957H39.7199ZM46.6963 80.5957C45.603 80.5957 44.6163 80.3624 43.7363 79.8957C42.8696 79.4291 42.183 78.7624 41.6763 77.8957C41.183 77.0291 40.9363 76.0157 40.9363 74.8557C40.9363 73.7091 41.1896 72.7024 41.6963 71.8357C42.203 70.9557 42.8963 70.2824 43.7763 69.8157C44.6563 69.3491 45.643 69.1157 46.7363 69.1157C47.8296 69.1157 48.8163 69.3491 49.6963 69.8157C50.5763 70.2824 51.2696 70.9557 51.7763 71.8357C52.283 72.7024 52.5363 73.7091 52.5363 74.8557C52.5363 76.0024 52.2763 77.0157 51.7563 77.8957C51.2496 78.7624 50.5496 79.4291 49.6563 79.8957C48.7763 80.3624 47.7896 80.5957 46.6963 80.5957ZM46.6963 77.6357C47.3496 77.6357 47.903 77.3957 48.3563 76.9157C48.823 76.4357 49.0563 75.7491 49.0563 74.8557C49.0563 73.9624 48.8296 73.2757 48.3763 72.7957C47.9363 72.3157 47.3896 72.0757 46.7363 72.0757C46.0696 72.0757 45.5163 72.3157 45.0763 72.7957C44.6363 73.2624 44.4163 73.9491 44.4163 74.8557C44.4163 75.7491 44.6296 76.4357 45.0563 76.9157C45.4963 77.3957 46.043 77.6357 46.6963 77.6357ZM68.7707 69.1557C70.1573 69.1557 71.2573 69.5757 72.0707 70.4157C72.8973 71.2557 73.3107 72.4224 73.3107 73.9157V80.4357H69.9107V74.3757C69.9107 73.6557 69.7173 73.1024 69.3307 72.7157C68.9573 72.3157 68.4373 72.1157 67.7707 72.1157C67.104 72.1157 66.5773 72.3157 66.1907 72.7157C65.8173 73.1024 65.6307 73.6557 65.6307 74.3757V80.4357H62.2307V74.3757C62.2307 73.6557 62.0373 73.1024 61.6507 72.7157C61.2773 72.3157 60.7573 72.1157 60.0907 72.1157C59.424 72.1157 58.8973 72.3157 58.5107 72.7157C58.1373 73.1024 57.9507 73.6557 57.9507 74.3757V80.4357H54.5307V69.2757H57.9507V70.6757C58.2973 70.2091 58.7507 69.8424 59.3107 69.5757C59.8707 69.2957 60.504 69.1557 61.2107 69.1557C62.0507 69.1557 62.7973 69.3357 63.4507 69.6957C64.1173 70.0557 64.6373 70.5691 65.0107 71.2357C65.3973 70.6224 65.924 70.1224 66.5907 69.7357C67.2573 69.3491 67.984 69.1557 68.7707 69.1557ZM75.2025 74.8357C75.2025 73.6891 75.4159 72.6824 75.8425 71.8157C76.2825 70.9491 76.8759 70.2824 77.6225 69.8157C78.3692 69.3491 79.2025 69.1157 80.1225 69.1157C80.9092 69.1157 81.5959 69.2757 82.1825 69.5957C82.7825 69.9157 83.2425 70.3357 83.5625 70.8557V69.2757H86.9825V80.4357H83.5625V78.8557C83.2292 79.3757 82.7625 79.7957 82.1625 80.1157C81.5759 80.4357 80.8892 80.5957 80.1025 80.5957C79.1959 80.5957 78.3692 80.3624 77.6225 79.8957C76.8759 79.4157 76.2825 78.7424 75.8425 77.8757C75.4159 76.9957 75.2025 75.9824 75.2025 74.8357ZM83.5625 74.8557C83.5625 74.0024 83.3225 73.3291 82.8425 72.8357C82.3759 72.3424 81.8025 72.0957 81.1225 72.0957C80.4425 72.0957 79.8625 72.3424 79.3825 72.8357C78.9159 73.3157 78.6825 73.9824 78.6825 74.8357C78.6825 75.6891 78.9159 76.3691 79.3825 76.8757C79.8625 77.3691 80.4425 77.6157 81.1225 77.6157C81.8025 77.6157 82.3759 77.3691 82.8425 76.8757C83.3225 76.3824 83.5625 75.7091 83.5625 74.8557ZM95.8568 77.5357V80.4357H94.1168C92.8768 80.4357 91.9101 80.1357 91.2168 79.5357C90.5234 78.9224 90.1768 77.9291 90.1768 76.5557V72.1157H88.8168V69.2757H90.1768V66.5557H93.5968V69.2757H95.8368V72.1157H93.5968V76.5957C93.5968 76.9291 93.6768 77.1691 93.8368 77.3157C93.9968 77.4624 94.2634 77.5357 94.6368 77.5357H95.8568ZM103.022 80.5957C101.928 80.5957 100.942 80.3624 100.062 79.8957C99.1951 79.4291 98.5084 78.7624 98.0018 77.8957C97.5084 77.0291 97.2618 76.0157 97.2618 74.8557C97.2618 73.7091 97.5151 72.7024 98.0218 71.8357C98.5284 70.9557 99.2218 70.2824 100.102 69.8157C100.982 69.3491 101.968 69.1157 103.062 69.1157C104.155 69.1157 105.142 69.3491 106.022 69.8157C106.902 70.2824 107.595 70.9557 108.102 71.8357C108.608 72.7024 108.862 73.7091 108.862 74.8557C108.862 76.0024 108.602 77.0157 108.082 77.8957C107.575 78.7624 106.875 79.4291 105.982 79.8957C105.102 80.3624 104.115 80.5957 103.022 80.5957ZM103.022 77.6357C103.675 77.6357 104.228 77.3957 104.682 76.9157C105.148 76.4357 105.382 75.7491 105.382 74.8557C105.382 73.9624 105.155 73.2757 104.702 72.7957C104.262 72.3157 103.715 72.0757 103.062 72.0757C102.395 72.0757 101.842 72.3157 101.402 72.7957C100.962 73.2624 100.742 73.9491 100.742 74.8557C100.742 75.7491 100.955 76.4357 101.382 76.9157C101.822 77.3957 102.368 77.6357 103.022 77.6357Z" fill="#044E1E"/>
</g>
<defs>
<filter id="filter0_d_379_2081" x="0" y="0.161987" width="190" height="187.486" filterUnits="userSpaceOnUse" color-interpolation-filters="sRGB">
<feFlood flood-opacity="0" result="BackgroundImageFix"/>
<feColorMatrix in="SourceAlpha" type="matrix" values="0 0 0 0 0 0 0 0 0 0 0 0 0 0 0 0 0 0 127 0" result="hardAlpha"/>
<feMorphology radius="10" operator="dilate" in="SourceAlpha" result="effect1_dropShadow_379_2081"/>
<feOffset/>
<feGaussianBlur stdDeviation="5"/>
<feComposite in2="hardAlpha" operator="out"/>
<feColorMatrix type="matrix" values="0 0 0 0 0 0 0 0 0 0 0 0 0 0 0 0 0 0 0.09 0"/>
<feBlend mode="normal" in2="BackgroundImageFix" result="effect1_dropShadow_379_2081"/>
<feBlend mode="normal" in="SourceGraphic" in2="effect1_dropShadow_379_2081" result="shape"/>
</filter>
</defs>
</svg>
