

<svg width="138" height="30" viewBox="0 0 138 30" fill="none" xmlns="http://www.w3.org/2000/svg">
<path d="M14.8108 29.28C12.1708 29.28 9.74412 28.6667 7.53078 27.44C5.31745 26.1867 3.55745 24.4667 2.25078 22.28C0.970781 20.0667 0.330781 17.5733 0.330781 14.8C0.330781 12.0267 0.970781 9.54667 2.25078 7.36C3.55745 5.14667 5.31745 3.42667 7.53078 2.2C9.74412 0.973333 12.1708 0.359999 14.8108 0.359999C17.4774 0.359999 19.9041 0.973333 22.0908 2.2C24.3041 3.42667 26.0508 5.14667 27.3308 7.36C28.6108 9.54667 29.2508 12.0267 29.2508 14.8C29.2508 17.5733 28.6108 20.0667 27.3308 22.28C26.0508 24.4667 24.3041 26.1867 22.0908 27.44C19.8774 28.6667 17.4508 29.28 14.8108 29.28ZM14.8108 22C16.8108 22 18.3841 21.3467 19.5308 20.04C20.7041 18.7333 21.2908 16.9867 21.2908 14.8C21.2908 12.56 20.7041 10.8 19.5308 9.52C18.3841 8.21333 16.8108 7.56 14.8108 7.56C12.7841 7.56 11.1974 8.21333 10.0508 9.52C8.90411 10.8 8.33078 12.56 8.33078 14.8C8.33078 17.0133 8.90411 18.7733 10.0508 20.08C11.1974 21.36 12.7841 22 14.8108 22ZM65.9352 6.56L60.2152 29H51.4152L48.2952 15.4L45.0552 29H36.2952L30.6152 6.56H38.4152L40.9352 21.44L44.2552 6.56H52.6552L56.0952 21.48L58.5752 6.56H65.9352ZM66.8858 17.76C66.8858 15.44 67.2991 13.4133 68.1258 11.68C68.9791 9.94667 70.1258 8.61333 71.5658 7.68C73.0324 6.74667 74.6591 6.28 76.4458 6.28C77.9924 6.28 79.3258 6.58667 80.4458 7.2C81.5658 7.81333 82.4324 8.64 83.0458 9.68V6.56H90.8858V29H83.0458V25.88C82.4324 26.92 81.5524 27.7467 80.4058 28.36C79.2858 28.9733 77.9658 29.28 76.4458 29.28C74.6591 29.28 73.0324 28.8133 71.5658 27.88C70.1258 26.9467 68.9791 25.6133 68.1258 23.88C67.2991 22.12 66.8858 20.08 66.8858 17.76ZM83.0458 17.76C83.0458 16.32 82.6458 15.1867 81.8458 14.36C81.0724 13.5333 80.1124 13.12 78.9658 13.12C77.7924 13.12 76.8191 13.5333 76.0458 14.36C75.2724 15.16 74.8858 16.2933 74.8858 17.76C74.8858 19.2 75.2724 20.3467 76.0458 21.2C76.8191 22.0267 77.7924 22.44 78.9658 22.44C80.1124 22.44 81.0724 22.0267 81.8458 21.2C82.6458 20.3733 83.0458 19.2267 83.0458 17.76ZM103.193 23H111.953V29H95.3533V0.799998H103.193V23ZM113.722 17.76C113.722 15.44 114.135 13.4133 114.962 11.68C115.815 9.94667 116.962 8.61333 118.402 7.68C119.868 6.74667 121.495 6.28 123.282 6.28C124.828 6.28 126.162 6.58667 127.282 7.2C128.402 7.81333 129.268 8.64 129.882 9.68V6.56H137.722V29H129.882V25.88C129.268 26.92 128.388 27.7467 127.242 28.36C126.122 28.9733 124.802 29.28 123.282 29.28C121.495 29.28 119.868 28.8133 118.402 27.88C116.962 26.9467 115.815 25.6133 114.962 23.88C114.135 22.12 113.722 20.08 113.722 17.76ZM129.882 17.76C129.882 16.32 129.482 15.1867 128.682 14.36C127.908 13.5333 126.948 13.12 125.802 13.12C124.628 13.12 123.655 13.5333 122.882 14.36C122.108 15.16 121.722 16.2933 121.722 17.76C121.722 19.2 122.108 20.3467 122.882 21.2C123.655 22.0267 124.628 22.44 125.802 22.44C126.948 22.44 127.908 22.0267 128.682 21.2C129.482 20.3733 129.882 19.2267 129.882 17.76Z" fill="#FC7A69"/>
</svg>
