<svg width="59" height="59" viewBox="0 0 59 59" fill="none" xmlns="http://www.w3.org/2000/svg">
<path d="M29.5 0.75C13.63 0.75 0.75 13.63 0.75 29.5C0.75 45.37 13.63 58.25 29.5 58.25C45.37 58.25 58.25 45.37 58.25 29.5C58.25 13.63 45.37 0.75 29.5 0.75ZM29.5 9.375C34.2725 9.375 38.125 13.2275 38.125 18C38.125 22.7725 34.2725 26.625 29.5 26.625C24.7275 26.625 20.875 22.7725 20.875 18C20.875 13.2275 24.7275 9.375 29.5 9.375ZM29.5 50.2C22.3125 50.2 15.9587 46.52 12.25 40.9425C12.3363 35.2212 23.75 32.0875 29.5 32.0875C35.2212 32.0875 46.6637 35.2212 46.75 40.9425C43.0412 46.52 36.6875 50.2 29.5 50.2Z" fill="#C4C4C4"/>
</svg>
